<svg width="266" height="159" viewBox="0 0 266 159" fill="none" xmlns="http://www.w3.org/2000/svg">
<path d="M61.0906 64.0767H130.213C131.59 64.0767 132.707 65.1914 132.707 66.5665V115.384C132.707 116.759 131.59 117.874 130.213 117.874H61.0906C59.7128 117.874 58.5959 116.759 58.5959 115.384V66.5665C58.5959 65.1914 59.7128 64.0767 61.0906 64.0767Z" fill="#399FE8"/>
<mask id="mask0_209_462" style="mask-type:luminance" maskUnits="userSpaceOnUse" x="58" y="64" width="75" height="54">
<path d="M61.0906 64.0767H130.213C131.59 64.0767 132.707 65.1914 132.707 66.5665V115.384C132.707 116.759 131.59 117.874 130.213 117.874H61.0906C59.7128 117.874 58.5959 116.759 58.5959 115.384V66.5665C58.5959 65.1914 59.7128 64.0767 61.0906 64.0767Z" fill="white"/>
</mask>
<g mask="url(#mask0_209_462)">
<path d="M53.7899 62.0972H136.266V71.6456H53.7899V62.0972Z" fill="#EFF3FC"/>
<mask id="mask1_209_462" style="mask-type:luminance" maskUnits="userSpaceOnUse" x="53" y="62" width="84" height="10">
<path d="M53.7899 62.0972H136.266V71.6456H53.7899V62.0972Z" fill="white"/>
</mask>
<g mask="url(#mask1_209_462)">
<path d="M139.466 72.1041C61.2369 72.8028 53.0115 67.6043 57.0367 58.0994C61.0619 48.5944 51.4364 67.6137 51.4364 67.6137L53.1865 76.6454L76.1126 77.3441L126.926 76.2961" fill="#D6DCF2"/>
</g>
<path d="M53.7899 62.0972H136.266V71.6456H53.7899V62.0972Z" stroke="#190000" stroke-width="0.5" stroke-linecap="round" stroke-linejoin="round"/>
<path d="M133.935 111.903C133.038 122.838 60.788 113.539 56.5239 117.124C52.2597 120.709 138.584 119.727 138.584 119.727L135.63 113.18" fill="#3B8BE2"/>
</g>
<path d="M61.0906 64.0767H130.213C131.59 64.0767 132.707 65.1914 132.707 66.5665V115.384C132.707 116.759 131.59 117.874 130.213 117.874H61.0906C59.7128 117.874 58.5959 116.759 58.5959 115.384V66.5665C58.5959 65.1914 59.7128 64.0767 61.0906 64.0767Z" stroke="#190000" stroke-width="0.5" stroke-linecap="round" stroke-linejoin="round"/>
<path d="M128.282 68.9671C127.533 68.9671 126.926 68.361 126.926 67.6134C126.926 66.8658 127.533 66.2598 128.282 66.2598C129.031 66.2598 129.639 66.8658 129.639 67.6134C129.639 68.361 129.031 68.9671 128.282 68.9671Z" fill="#D3575E" stroke="#190000" stroke-width="0.5" stroke-linecap="round" stroke-linejoin="round"/>
<path d="M124.178 68.9671C123.429 68.9671 122.822 68.361 122.822 67.6134C122.822 66.8658 123.429 66.2598 124.178 66.2598C124.928 66.2598 125.535 66.8658 125.535 67.6134C125.535 68.361 124.928 68.9671 124.178 68.9671Z" fill="#FBD164" stroke="#190000" stroke-width="0.5" stroke-linecap="round" stroke-linejoin="round"/>
<path d="M120.075 68.9671C119.326 68.9671 118.718 68.361 118.718 67.6134C118.718 66.8658 119.326 66.2598 120.075 66.2598C120.824 66.2598 121.431 66.8658 121.431 67.6134C121.431 68.361 120.824 68.9671 120.075 68.9671Z" fill="#357C49" stroke="#190000" stroke-width="0.5" stroke-linecap="round" stroke-linejoin="round"/>
<path d="M66.0661 75.0571H79.8159C80.7036 75.0571 81.4233 75.7754 81.4233 76.6615V109.836C81.4233 110.722 80.7036 111.44 79.8159 111.44H66.0661C65.1783 111.44 64.4586 110.722 64.4586 109.836V76.6615C64.4586 75.7754 65.1783 75.0571 66.0661 75.0571Z" fill="#9879C9"/>
<mask id="mask2_209_462" style="mask-type:luminance" maskUnits="userSpaceOnUse" x="64" y="75" width="18" height="37">
<path d="M66.0661 75.0571H79.8159C80.7036 75.0571 81.4233 75.7754 81.4233 76.6615V109.836C81.4233 110.722 80.7036 111.44 79.8159 111.44H66.0661C65.1783 111.44 64.4586 110.722 64.4586 109.836V76.6615C64.4586 75.7754 65.1783 75.0571 66.0661 75.0571Z" fill="white"/>
</mask>
<g mask="url(#mask2_209_462)">
<path d="M64.4586 102.741C64.2322 112.28 81.0428 112.034 81.0428 112.034L67.5943 114.878L62.3461 112.361" fill="#6F4EB9"/>
</g>
<path d="M66.0661 75.0571H79.8159C80.7036 75.0571 81.4233 75.7754 81.4233 76.6615V109.836C81.4233 110.722 80.7036 111.44 79.8159 111.44H66.0661C65.1783 111.44 64.4586 110.722 64.4586 109.836V76.6615C64.4586 75.7754 65.1783 75.0571 66.0661 75.0571Z" stroke="#190000" stroke-width="0.5" stroke-linecap="round" stroke-linejoin="round"/>
<path d="M72.9411 89.3497C69.8047 89.3497 67.2622 86.8121 67.2622 83.6819C67.2622 80.5517 69.8047 78.0142 72.9411 78.0142C76.0774 78.0142 78.6199 80.5517 78.6199 83.6819C78.6199 86.8121 76.0774 89.3497 72.9411 89.3497Z" fill="#D3575E"/>
<mask id="mask3_209_462" style="mask-type:luminance" maskUnits="userSpaceOnUse" x="67" y="78" width="12" height="12">
<path d="M72.9411 89.3497C69.8047 89.3497 67.2622 86.8121 67.2622 83.6819C67.2622 80.5517 69.8047 78.0142 72.9411 78.0142C76.0774 78.0142 78.6199 80.5517 78.6199 83.6819C78.6199 86.8121 76.0774 89.3497 72.9411 89.3497Z" fill="white"/>
</mask>
<g mask="url(#mask3_209_462)">
<path d="M72.9411 89.3497C69.8047 89.3497 67.2622 86.8121 67.2622 83.6819C67.2622 80.5517 69.8047 78.0142 72.9411 78.0142C76.0774 78.0142 78.6199 80.5517 78.6199 83.6819C78.6199 86.8121 76.0774 89.3497 72.9411 89.3497Z" fill="#409159" stroke="#190000" stroke-width="0.5" stroke-linecap="round" stroke-linejoin="round"/>
<path d="M70.4629 81.5555C70.8301 80.6696 70.3776 79.9098 71.9212 79.7545C74.9501 78.0642 73.4375 81.3368 75.3527 82.3197C77.268 83.3026 74.6882 85.3666 71.7805 84.1656C68.3895 82.7651 69.9374 82.8231 70.4629 81.5555Z" fill="#914D44"/>
<path d="M74.3875 87.902L75.6186 90.6573L76.6298 89.361L75.5386 87.8415L74.8316 87.4819" fill="#FACCC4"/>
<path d="M74.3875 87.902L75.6186 90.6573L76.6298 89.361L75.5386 87.8415L74.8316 87.4819" stroke="#190000" stroke-width="0.5" stroke-linecap="round" stroke-linejoin="round"/>
<path d="M77.243 87.4818C76.1879 89.1492 74.5857 88.8345 74.5857 88.8345L73.1264 85.0553C73.1264 85.0553 73.8796 83.4937 74.4975 83.3351C75.2669 83.1377 77.243 87.4818 77.243 87.4818Z" fill="#D3575E"/>
<mask id="mask4_209_462" style="mask-type:luminance" maskUnits="userSpaceOnUse" x="73" y="83" width="5" height="6">
<path d="M77.243 87.4818C76.1879 89.1492 74.5857 88.8345 74.5857 88.8345L73.1264 85.0553C73.1264 85.0553 73.8796 83.4937 74.4975 83.3351C75.2669 83.1377 77.243 87.4818 77.243 87.4818Z" fill="white"/>
</mask>
<g mask="url(#mask4_209_462)">
<path d="M76.4754 85.127C76.2355 86.3242 74.7769 86.2786 74.7769 86.2786L75.8258 87.3216C75.8258 87.3216 77.7007 86.6827 77.7375 85.84" fill="#EFF3FC"/>
</g>
<path d="M77.243 87.4818C76.1879 89.1492 74.5857 88.8345 74.5857 88.8345L73.1264 85.0553C73.1264 85.0553 73.8796 83.4937 74.4975 83.3351C75.2669 83.1377 77.243 87.4818 77.243 87.4818Z" stroke="#190000" stroke-width="0.5" stroke-linecap="round" stroke-linejoin="round"/>
<path d="M72.8322 90.636L67.7733 90.466C67.7733 90.466 68.1565 84.791 69.2699 84.413C70.3037 84.062 72.2979 83.38 74.6359 83.634C74.932 83.6662 74.6665 84.0352 74.6125 84.3275C74.5438 84.6995 74.8995 85.2412 74.6988 86.3273C74.2013 89.0183 72.8322 90.636 72.8322 90.636Z" fill="#D3575E"/>
<mask id="mask5_209_462" style="mask-type:luminance" maskUnits="userSpaceOnUse" x="67" y="83" width="8" height="8">
<path d="M72.8322 90.636L67.7733 90.466C67.7733 90.466 68.1565 84.791 69.2699 84.413C70.3037 84.062 72.2979 83.38 74.6359 83.634C74.932 83.6662 74.6665 84.0352 74.6125 84.3275C74.5438 84.6995 74.8995 85.2412 74.6988 86.3273C74.2013 89.0183 72.8322 90.636 72.8322 90.636Z" fill="white"/>
</mask>
<g mask="url(#mask5_209_462)">
<path d="M69.6517 86.4259C72.0714 86.3844 69.0662 88.4069 70.795 88.7031C72.5237 88.9993 73.4583 89.2493 73.1452 89.9428C72.8322 90.6362 70.0456 89.844 69.9467 89.8769C69.8478 89.9098 67.7733 89.1583 67.7733 89.1583V87.2612L69.0564 85.8584" fill="#BA424D"/>
<path d="M73.5387 83.448C74.3733 86.1737 72.927 85.9615 70.5607 83.9164C68.1945 81.8714 71.2755 82.8382 71.2755 82.8382L73.5256 83.1459" fill="#FACCC4"/>
</g>
<path d="M72.8322 90.636L67.7733 90.466C67.7733 90.466 68.1565 84.791 69.2699 84.413C70.3037 84.062 72.2979 83.38 74.6359 83.634C74.932 83.6662 74.6665 84.0352 74.6125 84.3275C74.5438 84.6995 74.8995 85.2412 74.6988 86.3273C74.2013 89.0183 72.8322 90.636 72.8322 90.636Z" stroke="#190000" stroke-width="0.5" stroke-linecap="round" stroke-linejoin="round"/>
<path d="M73.2526 88.1016L73.2685 88.1981H74.2742L74.2648 88.1016L74.0197 88.0861L74.2978 87.5164L74.7517 88.0736L74.5267 88.1017L74.5426 88.1982H75.2056L75.1897 88.1017L74.9296 88.0736L74.3417 87.4293L74.747 86.6106L74.912 86.5919L74.8966 86.4985H73.9039L73.9192 86.5919L74.146 86.6137L73.8811 87.146L73.4517 86.6199L73.6735 86.5919L73.6581 86.4985H73.0372L73.0526 86.5919L73.2744 86.623L73.8373 87.2332L73.409 88.0892L73.2526 88.1016Z" fill="#EFF3FC"/>
<path d="M71.0471 88.1014L71.063 88.1979H72.0008L71.985 88.1014L71.7781 88.0827C71.7452 87.9021 71.6984 87.6375 71.6687 87.457L71.5949 87.0088C71.5549 86.766 71.6117 86.6788 71.7637 86.6788C71.9109 86.6975 72.0494 86.7593 72.1616 86.8562L72.2605 87.457C72.2892 87.6313 72.3305 87.9021 72.3575 88.0858L72.1757 88.1014L72.1916 88.1979H73.1262L73.1103 88.1014L72.8906 88.0827C72.8571 87.899 72.8098 87.6313 72.7811 87.457L72.7386 87.1986C72.7052 86.9963 72.6916 86.8936 72.6734 86.7442L72.9119 86.7192L72.8996 86.6446L72.1656 86.4484L72.1254 86.4796L72.1511 86.7535C71.8987 86.5169 71.7091 86.4453 71.4956 86.4453C71.1884 86.4453 71.01 86.6383 71.0771 87.0461L71.1448 87.457C71.175 87.6407 71.2153 87.9053 71.2386 88.0858L71.0471 88.1014Z" fill="#EFF3FC"/>
<path d="M73 84.236C72.9056 83.7646 72.7929 83.1376 72.8132 82.9238L71.4791 81.8843L71.1427 84.0242" fill="#FACCC4"/>
<mask id="mask6_209_462" style="mask-type:luminance" maskUnits="userSpaceOnUse" x="71" y="81" width="2" height="4">
<path d="M73 84.236C72.9056 83.7646 72.7929 83.1376 72.8132 82.9238L71.4791 81.8843L71.1427 84.0242" fill="white"/>
</mask>
<g mask="url(#mask6_209_462)">
<path d="M71.9751 82.6167C71.5784 82.6126 72.1441 83.5269 73.1263 84.2358C73.4495 84.469 73.5469 82.9199 73.5469 82.9199L73.1172 82.6275" fill="#ED707B"/>
</g>
<path d="M71.2606 81.6344C71.8534 81.3243 71.8911 80.6737 72.322 80.5884C72.7129 81.0057 73.3893 80.4768 73.7541 81.0202C73.9666 83.9855 72.6158 83.4761 71.7984 82.5195" fill="#FACCC4"/>
<path d="M71.5341 81.4972C70.2569 80.7983 70.7302 82.282 71.5201 82.282L71.5341 81.4972Z" fill="#FACCC4"/>
<path d="M77.6005 90.7211C77.7155 90.7248 77.8293 90.6977 77.9301 90.6424C78.0309 90.5872 78.115 90.506 78.1736 90.4072C78.2321 90.3084 78.263 90.1957 78.2629 90.081C78.2629 89.9662 78.232 89.8535 78.1733 89.7548C76.9341 87.6702 74.9391 83.9536 74.9298 83.8412C74.9121 83.6303 75.8238 83.0728 75.8943 82.9439C75.9647 82.815 75.5304 81.7019 75.4365 81.6668C75.3425 81.6316 74.7321 81.8308 74.6851 81.8074C74.6382 81.7839 74.553 82.2233 75.2193 82.0769C75.2193 82.0769 74.9199 82.2233 74.8788 82.3112C74.8788 82.3112 74.5442 82.3903 74.5706 82.61C74.5706 82.61 74.3593 82.8033 74.3857 82.9615C74.3857 82.9615 73.9074 83.5063 73.9338 83.7524C73.9551 83.9518 75.0484 88.3629 75.4622 90.0283C75.5072 90.2094 75.6102 90.3709 75.7555 90.4882C75.9009 90.6055 76.0807 90.6722 76.2675 90.6781L77.6005 90.7211Z" fill="#FACCC4"/>
<mask id="mask7_209_462" style="mask-type:luminance" maskUnits="userSpaceOnUse" x="73" y="81" width="6" height="10">
<path d="M77.6005 90.7211C77.7155 90.7248 77.8293 90.6977 77.9301 90.6424C78.0309 90.5872 78.115 90.506 78.1736 90.4072C78.2321 90.3084 78.263 90.1957 78.2629 90.081C78.2629 89.9662 78.232 89.8535 78.1733 89.7548C76.9341 87.6702 74.9391 83.9536 74.9298 83.8412C74.9121 83.6303 75.8238 83.0728 75.8943 82.9439C75.9647 82.815 75.5304 81.7019 75.4365 81.6668C75.3425 81.6316 74.7321 81.8308 74.6851 81.8074C74.6382 81.7839 74.553 82.2233 75.2193 82.0769C75.2193 82.0769 74.9199 82.2233 74.8788 82.3112C74.8788 82.3112 74.5442 82.3903 74.5706 82.61C74.5706 82.61 74.3593 82.8033 74.3857 82.9615C74.3857 82.9615 73.9074 83.5063 73.9338 83.7524C73.9551 83.9518 75.0484 88.3629 75.4622 90.0283C75.5072 90.2094 75.6102 90.3709 75.7555 90.4882C75.9009 90.6055 76.0807 90.6722 76.2675 90.6781L77.6005 90.7211Z" fill="white"/>
</mask>
<g mask="url(#mask7_209_462)">
<path d="M77.7374 86.6534C75.6686 85.278 75.2155 85.9659 74.8938 86.9379C74.5721 87.9098 76.0984 87.6253 76.0984 87.6253L76.6297 87.4821" fill="#ED707B"/>
</g>
<path d="M65.8344 89.3818L66.4011 87.999L67.7787 88.6742L67.7681 88.7072C69.8687 89.3705 73.4423 90.3227 73.8526 90.4823C74.4366 90.3798 74.7155 90.3363 74.8253 90.3503C74.9351 90.3643 75.9684 90.6966 76.0428 90.6707C76.1172 90.6448 76.1895 91.0316 75.7456 91.0104C75.5269 91.0064 75.3092 90.9786 75.0965 90.9277C75.0965 90.9277 75.0727 91.1135 74.9884 91.1381C74.9884 91.1381 74.8413 91.4144 74.6571 91.4263C74.473 91.4382 73.7551 91.4882 73.7551 91.4882L67.0808 90.8576L66.6194 90.7822C66.4669 90.7572 66.322 90.6983 66.1955 90.6098C66.069 90.5212 65.9642 90.4054 65.8887 90.2708C65.8133 90.1362 65.7692 89.9864 65.7598 89.8325C65.7504 89.6785 65.7759 89.5245 65.8344 89.3818Z" fill="#FACCC4"/>
<mask id="mask8_209_462" style="mask-type:luminance" maskUnits="userSpaceOnUse" x="65" y="87" width="12" height="5">
<path d="M65.8344 89.3818L66.4011 87.999L67.7787 88.6742L67.7681 88.7072C69.8687 89.3705 73.4423 90.3227 73.8526 90.4823C74.4366 90.3798 74.7155 90.3363 74.8253 90.3503C74.9351 90.3643 75.9684 90.6966 76.0428 90.6707C76.1172 90.6448 76.1895 91.0316 75.7456 91.0104C75.5269 91.0064 75.3092 90.9786 75.0965 90.9277C75.0965 90.9277 75.0727 91.1135 74.9884 91.1381C74.9884 91.1381 74.8413 91.4144 74.6571 91.4263C74.473 91.4382 73.7551 91.4882 73.7551 91.4882L67.0808 90.8576L66.6194 90.7822C66.4669 90.7572 66.322 90.6983 66.1955 90.6098C66.069 90.5212 65.9642 90.4054 65.8887 90.2708C65.8133 90.1362 65.7692 89.9864 65.7598 89.8325C65.7504 89.6785 65.7759 89.5245 65.8344 89.3818Z" fill="white"/>
</mask>
<g mask="url(#mask8_209_462)">
<path d="M69.0479 89.0484C67.6152 89.1302 66.2022 88.6893 66.6076 88.2363C67.013 87.7832 68.1446 87.9992 68.1446 87.9992" fill="#ED707B"/>
</g>
<path d="M65.8344 89.3818L66.4011 87.999L67.7787 88.6742L67.7681 88.7072C69.8687 89.3705 73.4423 90.3227 73.8526 90.4823C74.4366 90.3798 74.7155 90.3363 74.8253 90.3503C74.9351 90.3643 75.9684 90.6966 76.0428 90.6707C76.1172 90.6448 76.1895 91.0316 75.7456 91.0104C75.5269 91.0064 75.3092 90.9786 75.0965 90.9277C75.0965 90.9277 75.0727 91.1135 74.9884 91.1381C74.9884 91.1381 74.8413 91.4144 74.6571 91.4263C74.473 91.4382 73.7551 91.4882 73.7551 91.4882L67.0808 90.8576L66.6194 90.7822C66.4669 90.7572 66.322 90.6983 66.1955 90.6098C66.069 90.5212 65.9642 90.4054 65.8887 90.2708C65.8133 90.1362 65.7692 89.9864 65.7598 89.8325C65.7504 89.6785 65.7759 89.5245 65.8344 89.3818Z" stroke="#190000" stroke-width="0.5" stroke-linecap="round" stroke-linejoin="round"/>
<path d="M70.0548 86.322C69.7432 87.379 69.3257 88.8715 69.3257 88.8715C67.2154 89.1348 66.2125 87.8767 66.2125 87.8767C66.2125 87.8767 67.6286 84.636 69.2696 84.4106" fill="#D3575E"/>
<mask id="mask9_209_462" style="mask-type:luminance" maskUnits="userSpaceOnUse" x="66" y="84" width="5" height="5">
<path d="M70.0548 86.322C69.7432 87.379 69.3257 88.8715 69.3257 88.8715C67.2154 89.1348 66.2125 87.8767 66.2125 87.8767C66.2125 87.8767 67.6286 84.636 69.2696 84.4106" fill="white"/>
</mask>
<g mask="url(#mask9_209_462)">
<path d="M70.1389 87.3216C67.4832 87.5686 66.877 86.0103 66.877 86.0103L66.5305 86.6591C66.5305 86.6591 67.6902 88.3465 70.0548 87.7127" fill="#EFF3FC"/>
</g>
<path d="M70.0548 86.322C69.7432 87.379 69.3257 88.8715 69.3257 88.8715C67.2154 89.1348 66.2125 87.8767 66.2125 87.8767C66.2125 87.8767 67.6286 84.636 69.2696 84.4106" stroke="#190000" stroke-width="0.5" stroke-linecap="round" stroke-linejoin="round"/>
<path d="M72.7981 91.3661H80.6424L82.6695 86.1543C82.6757 86.1382 82.6779 86.1209 82.6759 86.1039C82.674 86.0868 82.6678 86.0704 82.6581 86.0563C82.6484 86.0421 82.6353 86.0305 82.6201 86.0225C82.6049 86.0144 82.5879 86.0103 82.5707 86.0103H75.1695C75.0845 86.0103 75.0016 86.0359 74.9315 86.0838C74.8614 86.1317 74.8075 86.1996 74.7767 86.2786L72.7981 91.3661Z" fill="#9879C9"/>
<mask id="mask10_209_462" style="mask-type:luminance" maskUnits="userSpaceOnUse" x="72" y="86" width="11" height="6">
<path d="M72.7981 91.3661H80.6424L82.6695 86.1543C82.6757 86.1382 82.6779 86.1209 82.6759 86.1039C82.674 86.0868 82.6678 86.0704 82.6581 86.0563C82.6484 86.0421 82.6353 86.0305 82.6201 86.0225C82.6049 86.0144 82.5879 86.0103 82.5707 86.0103H75.1695C75.0845 86.0103 75.0016 86.0359 74.9315 86.0838C74.8614 86.1317 74.8075 86.1996 74.7767 86.2786L72.7981 91.3661Z" fill="white"/>
</mask>
<g mask="url(#mask10_209_462)">
<path d="M82.225 88.688C79.9417 91.9332 74.6066 90.6858 73.5893 91.3998C72.5721 92.1137 78.4723 92.046 78.5401 92.046C78.608 92.046 80.959 92.2491 80.959 92.2491L82.0893 91.843" fill="#357C49"/>
</g>
<path d="M72.7981 91.3661H80.6424L82.6695 86.1543C82.6757 86.1382 82.6779 86.1209 82.6759 86.1039C82.674 86.0868 82.6678 86.0704 82.6581 86.0563C82.6484 86.0421 82.6353 86.0305 82.6201 86.0225C82.6049 86.0144 82.5879 86.0103 82.5707 86.0103H75.1695C75.0845 86.0103 75.0016 86.0359 74.9315 86.0838C74.8614 86.1317 74.8075 86.1996 74.7767 86.2786L72.7981 91.3661Z" stroke="#190000" stroke-width="0.5" stroke-linecap="round" stroke-linejoin="round"/>
<path d="M72.9502 91.3661H80.7945L82.8215 86.1543C82.8278 86.1382 82.83 86.1209 82.828 86.1039C82.8261 86.0868 82.8199 86.0704 82.8102 86.0563C82.8005 86.0421 82.7874 86.0305 82.7722 86.0225C82.757 86.0144 82.74 86.0103 82.7228 86.0103H75.3216C75.2367 86.0103 75.1537 86.0359 75.0836 86.0838C75.0135 86.1317 74.9596 86.1996 74.9288 86.2786L72.9502 91.3661Z" fill="#EFF3FC"/>
<mask id="mask11_209_462" style="mask-type:luminance" maskUnits="userSpaceOnUse" x="72" y="86" width="11" height="6">
<path d="M72.9502 91.3661H80.7945L82.8215 86.1543C82.8278 86.1382 82.83 86.1209 82.828 86.1039C82.8261 86.0868 82.8199 86.0704 82.8102 86.0563C82.8005 86.0421 82.7874 86.0305 82.7722 86.0225C82.757 86.0144 82.74 86.0103 82.7228 86.0103H75.3216C75.2367 86.0103 75.1537 86.0359 75.0836 86.0838C75.0135 86.1317 74.9596 86.1996 74.9288 86.2786L72.9502 91.3661Z" fill="white"/>
</mask>
<g mask="url(#mask11_209_462)">
<path d="M82.377 88.688C80.0937 91.9332 74.7586 90.6858 73.7413 91.3998C72.7241 92.1137 78.6243 92.046 78.6921 92.046C78.7599 92.046 81.111 92.2491 81.111 92.2491L82.2413 91.843" fill="#6F4EB9"/>
</g>
<path d="M77.8778 88.8604C77.7363 88.6531 77.8513 88.329 78.1346 88.1365C78.4179 87.944 78.7622 87.956 78.9036 88.1633C79.045 88.3705 78.93 88.6946 78.6467 88.8872C78.3634 89.0797 78.0192 89.0677 77.8778 88.8604Z" fill="#EFF3FC"/>
</g>
<path d="M72.9411 89.3497C69.8047 89.3497 67.2622 86.8121 67.2622 83.6819C67.2622 80.5517 69.8047 78.0142 72.9411 78.0142C76.0774 78.0142 78.6199 80.5517 78.6199 83.6819C78.6199 86.8121 76.0774 89.3497 72.9411 89.3497Z" stroke="#190000" stroke-width="0.5" stroke-linecap="round" stroke-linejoin="round"/>
<path d="M69.2221 92.6543H76.66C77.3124 92.6543 77.8413 93.1822 77.8413 93.8333C77.8413 94.4844 77.3124 95.0123 76.66 95.0123H69.2221C68.5697 95.0123 68.0408 94.4844 68.0408 93.8333C68.0408 93.1822 68.5697 92.6543 69.2221 92.6543Z" fill="#EFF3FC" stroke="#190000" stroke-width="0.5" stroke-linecap="round" stroke-linejoin="round"/>
<path d="M69.2221 97.6978H76.66C77.3124 97.6978 77.8413 98.2256 77.8413 98.8768C77.8413 99.5279 77.3124 100.056 76.66 100.056H69.2221C68.5697 100.056 68.0408 99.5279 68.0408 98.8768C68.0408 98.2256 68.5697 97.6978 69.2221 97.6978Z" fill="#6F4EB9"/>
<path d="M69.2221 102.741H76.66C77.3124 102.741 77.8413 103.269 77.8413 103.92C77.8413 104.571 77.3124 105.099 76.66 105.099H69.2221C68.5697 105.099 68.0408 104.571 68.0408 103.92C68.0408 103.269 68.5697 102.741 69.2221 102.741Z" fill="#EFF3FC" stroke="#190000" stroke-width="0.5" stroke-linecap="round" stroke-linejoin="round"/>
<path d="M87.4438 75.0571H125.444C126.859 75.0571 128.007 76.2024 128.007 77.6151V108.882C128.007 110.295 126.859 111.44 125.444 111.44H87.4438C86.0283 111.44 84.8808 110.295 84.8808 108.882V77.6151C84.8808 76.2024 86.0283 75.0571 87.4438 75.0571Z" fill="#EFF3FC"/>
<mask id="mask12_209_462" style="mask-type:luminance" maskUnits="userSpaceOnUse" x="84" y="75" width="45" height="37">
<path d="M87.4438 75.0571H125.444C126.859 75.0571 128.007 76.2024 128.007 77.6151V108.882C128.007 110.295 126.859 111.44 125.444 111.44H87.4438C86.0283 111.44 84.8808 110.295 84.8808 108.882V77.6151C84.8808 76.2024 86.0283 75.0571 87.4438 75.0571Z" fill="white"/>
</mask>
<g mask="url(#mask12_209_462)">
<path d="M83.2569 93.833C83.0929 114.62 110.316 111.44 110.316 111.44L82.9289 114.878L82.1294 96.0917" fill="#D6DCF2"/>
</g>
<path d="M87.4438 75.0571H125.444C126.859 75.0571 128.007 76.2024 128.007 77.6151V108.882C128.007 110.295 126.859 111.44 125.444 111.44H87.4438C86.0283 111.44 84.8808 110.295 84.8808 108.882V77.6151C84.8808 76.2024 86.0283 75.0571 87.4438 75.0571Z" stroke="#190000" stroke-width="0.5" stroke-linecap="round" stroke-linejoin="round"/>
<path d="M98.9788 78.0142H123.317C124.326 78.0142 125.144 78.8307 125.144 79.8379V93.8092C125.144 94.8164 124.326 95.6329 123.317 95.6329H98.9788C97.9696 95.6329 97.1515 94.8164 97.1515 93.8092V79.8379C97.1515 78.8307 97.9696 78.0142 98.9788 78.0142Z" fill="#399FE8" stroke="#190000" stroke-width="0.5" stroke-linecap="round" stroke-linejoin="round"/>
<path d="M112.996 81.4629L120.2 91.9782H105.791L112.996 81.4629Z" fill="#D6DCF2" stroke="#190000" stroke-width="0.5" stroke-linecap="round" stroke-linejoin="round"/>
<path d="M106.808 85.0293L111.568 91.9783H102.047L106.808 85.0293Z" fill="#EFF3FC" stroke="#190000" stroke-width="0.5" stroke-linecap="round" stroke-linejoin="round"/>
<path d="M107.428 83.6185C106.528 83.6185 105.798 82.8903 105.798 81.9921C105.798 81.0939 106.528 80.3657 107.428 80.3657C108.328 80.3657 109.057 81.0939 109.057 81.9921C109.057 82.8903 108.328 83.6185 107.428 83.6185Z" fill="#FFD599"/>
<path d="M106.792 98.8423H124.666C125.058 98.8423 125.375 99.1592 125.375 99.5502C125.375 99.9412 125.058 100.258 124.666 100.258H106.792C106.4 100.258 106.083 99.9412 106.083 99.5502C106.083 99.1592 106.4 98.8423 106.792 98.8423Z" fill="#D6DCF2"/>
<path d="M91.4596 103.467H124.657C125.048 103.467 125.366 103.784 125.366 104.175C125.366 104.566 125.048 104.883 124.657 104.883H91.4596C91.0679 104.883 90.7503 104.566 90.7503 104.175C90.7503 103.784 91.0679 103.467 91.4596 103.467Z" fill="#D6DCF2"/>
<path d="M124.09 107.772L123.597 108.097" stroke="#D6DCF2" stroke-width="0.5" stroke-linecap="round" stroke-linejoin="round"/>
<path d="M72.1045 66.5293L69.6444 67.5114" stroke="#D6DCF2" stroke-width="11" stroke-linecap="round" stroke-linejoin="round"/>
<path d="M116.538 1.06787H190.714C192.192 1.06787 193.391 2.26414 193.391 3.7398V56.127C193.391 57.6026 192.192 58.7989 190.714 58.7989H116.538C115.059 58.7989 113.861 57.6026 113.861 56.127V3.7398C113.861 2.26414 115.059 1.06787 116.538 1.06787Z" fill="#6F4EB9"/>
<mask id="mask13_209_462" style="mask-type:luminance" maskUnits="userSpaceOnUse" x="113" y="1" width="81" height="58">
<path d="M116.538 1.06787H190.714C192.192 1.06787 193.391 2.26414 193.391 3.7398V56.127C193.391 57.6026 192.192 58.7989 190.714 58.7989H116.538C115.059 58.7989 113.861 57.6026 113.861 56.127V3.7398C113.861 2.26414 115.059 1.06787 116.538 1.06787Z" fill="white"/>
</mask>
<g mask="url(#mask13_209_462)">
<path d="M108.703 -1.05664H197.209V9.18999H108.703V-1.05664Z" fill="#399FE8"/>
<mask id="mask14_209_462" style="mask-type:luminance" maskUnits="userSpaceOnUse" x="108" y="-2" width="90" height="12">
<path d="M108.703 -1.05664H197.209V9.18999H108.703V-1.05664Z" fill="white"/>
</mask>
<g mask="url(#mask14_209_462)">
<path d="M200.643 9.68196C116.695 10.4317 107.868 4.8532 112.187 -5.34673C116.507 -15.5467 106.178 4.86328 106.178 4.86328L108.056 14.5554L132.658 15.3051L187.187 14.1805" fill="#3B8BE2"/>
</g>
<path d="M108.703 -1.05664H197.209V9.18999H108.703V-1.05664Z" stroke="#190000" stroke-width="0.5" stroke-linecap="round" stroke-linejoin="round"/>
</g>
<path d="M116.538 1.06787H190.714C192.192 1.06787 193.391 2.26414 193.391 3.7398V56.127C193.391 57.6026 192.192 58.7989 190.714 58.7989H116.538C115.059 58.7989 113.861 57.6026 113.861 56.127V3.7398C113.861 2.26414 115.059 1.06787 116.538 1.06787Z" stroke="#190000" stroke-width="0.5" stroke-linecap="round" stroke-linejoin="round"/>
<path d="M188.642 6.31594C187.838 6.31594 187.186 5.66557 187.186 4.86329C187.186 4.06102 187.838 3.41064 188.642 3.41064C189.446 3.41064 190.097 4.06102 190.097 4.86329C190.097 5.66557 189.446 6.31594 188.642 6.31594Z" fill="#D3575E" stroke="#190000" stroke-width="0.5" stroke-linecap="round" stroke-linejoin="round"/>
<path d="M184.238 6.31594C183.434 6.31594 182.783 5.66557 182.783 4.86329C182.783 4.06102 183.434 3.41064 184.238 3.41064C185.042 3.41064 185.694 4.06102 185.694 4.86329C185.694 5.66557 185.042 6.31594 184.238 6.31594Z" fill="#FBD164" stroke="#190000" stroke-width="0.5" stroke-linecap="round" stroke-linejoin="round"/>
<path d="M179.834 6.31594C179.03 6.31594 178.379 5.66557 178.379 4.86329C178.379 4.06102 179.03 3.41064 179.834 3.41064C180.638 3.41064 181.29 4.06102 181.29 4.86329C181.29 5.66557 180.638 6.31594 179.834 6.31594Z" fill="#357C49" stroke="#190000" stroke-width="0.5" stroke-linecap="round" stroke-linejoin="round"/>
<path d="M121.915 13.2212H185.336C187.305 13.2212 188.901 14.8142 188.901 16.7792V50.8243C188.901 52.7893 187.305 54.3823 185.336 54.3823H121.915C119.946 54.3823 118.35 52.7893 118.35 50.8243V16.7792C118.35 14.8142 119.946 13.2212 121.915 13.2212Z" fill="white"/>
<mask id="mask15_209_462" style="mask-type:luminance" maskUnits="userSpaceOnUse" x="118" y="13" width="71" height="42">
<path d="M121.915 13.2212H185.336C187.305 13.2212 188.901 14.8142 188.901 16.7792V50.8243C188.901 52.7893 187.305 54.3823 185.336 54.3823H121.915C119.946 54.3823 118.35 52.7893 118.35 50.8243V16.7792C118.35 14.8142 119.946 13.2212 121.915 13.2212Z" fill="white"/>
</mask>
<g mask="url(#mask15_209_462)">
<path d="M190.098 46.0889C188.743 56.4546 151.391 55.5764 151.391 55.5764L180.955 60.7897L192.703 55.1372" fill="#D6DCF2"/>
</g>
<path d="M121.915 13.2212H185.336C187.305 13.2212 188.901 14.8142 188.901 16.7792V50.8243C188.901 52.7893 187.305 54.3823 185.336 54.3823H121.915C119.946 54.3823 118.35 52.7893 118.35 50.8243V16.7792C118.35 14.8142 119.946 13.2212 121.915 13.2212Z" stroke="#190000" stroke-width="0.5" stroke-linecap="round" stroke-linejoin="round"/>
<path d="M172.728 19.8047H180.399C180.693 19.8047 180.931 20.0426 180.931 20.3361V20.3362C180.931 20.6297 180.693 20.8676 180.399 20.8676H172.728C172.434 20.8676 172.196 20.6297 172.196 20.3361C172.196 20.0426 172.434 19.8047 172.728 19.8047Z" fill="#EFF3FC"/>
<path d="M168.065 19.8047H170.898C171.192 19.8047 171.43 20.0426 171.43 20.3361V20.3362C171.43 20.6297 171.192 20.8676 170.898 20.8676H168.065C167.771 20.8676 167.532 20.6297 167.532 20.3362V20.3361C167.532 20.0426 167.771 19.8047 168.065 19.8047Z" fill="#EFF3FC"/>
<path d="M181.965 26.7054C179.725 24.3898 179.645 29.6997 176.285 29.2605C172.924 28.8213 174.045 25.7073 171.004 25.827C167.964 25.9468 169.244 29.6319 165.964 29.2865C162.684 28.9411 163.924 21.4353 161.004 21.4753C158.084 21.5152 159.124 29.5577 156.524 29.3093C153.923 29.0609 155.123 26.1863 151.123 26.0266" stroke="#6F4EB9" stroke-width="0.5" stroke-linecap="round" stroke-linejoin="round"/>
<path d="M180.955 26.7272C180.619 26.7272 180.346 26.4551 180.346 26.1194C180.346 25.7838 180.619 25.5117 180.955 25.5117C181.292 25.5117 181.564 25.7838 181.564 26.1194C181.564 26.4551 181.292 26.7272 180.955 26.7272Z" fill="#FBD164" stroke="#190000" stroke-width="0.5" stroke-linecap="round" stroke-linejoin="round"/>
<path d="M171.204 26.5446C170.868 26.5446 170.595 26.2725 170.595 25.9368C170.595 25.6012 170.868 25.3291 171.204 25.3291C171.541 25.3291 171.813 25.6012 171.813 25.9368C171.813 26.2725 171.541 26.5446 171.204 26.5446Z" fill="#FBD164" stroke="#190000" stroke-width="0.5" stroke-linecap="round" stroke-linejoin="round"/>
<path d="M166.296 29.7985C165.96 29.7985 165.687 29.5264 165.687 29.1907C165.687 28.8551 165.96 28.583 166.296 28.583C166.633 28.583 166.905 28.8551 166.905 29.1907C166.905 29.5264 166.633 29.7985 166.296 29.7985Z" fill="#FB81B2" stroke="#190000" stroke-width="0.5" stroke-linecap="round" stroke-linejoin="round"/>
<path d="M160.976 22.0826C160.64 22.0826 160.367 21.8106 160.367 21.4749C160.367 21.1393 160.64 20.8672 160.976 20.8672C161.312 20.8672 161.585 21.1393 161.585 21.4749C161.585 21.8106 161.312 22.0826 160.976 22.0826Z" fill="#FBD164" stroke="#190000" stroke-width="0.5" stroke-linecap="round" stroke-linejoin="round"/>
<path d="M156.256 29.9171C155.919 29.9171 155.647 29.645 155.647 29.3094C155.647 28.9738 155.919 28.7017 156.256 28.7017C156.592 28.7017 156.865 28.9738 156.865 29.3094C156.865 29.645 156.592 29.9171 156.256 29.9171Z" fill="#FBD164" stroke="#190000" stroke-width="0.5" stroke-linecap="round" stroke-linejoin="round"/>
<path d="M152 26.6344C151.663 26.6344 151.391 26.3623 151.391 26.0267C151.391 25.691 151.663 25.4189 152 25.4189C152.336 25.4189 152.609 25.691 152.609 26.0267C152.609 26.3623 152.336 26.6344 152 26.6344Z" fill="#FBD164" stroke="#190000" stroke-width="0.5" stroke-linecap="round" stroke-linejoin="round"/>
<path d="M176.425 29.7985C176.088 29.7985 175.816 29.5264 175.816 29.1907C175.816 28.8551 176.088 28.583 176.425 28.583C176.761 28.583 177.033 28.8551 177.033 29.1907C177.033 29.5264 176.761 29.7985 176.425 29.7985Z" fill="#FBD164" stroke="#190000" stroke-width="0.5" stroke-linecap="round" stroke-linejoin="round"/>
<path d="M122.843 23.062H144.956C145.52 23.062 145.976 23.5179 145.976 24.0802V24.0802C145.976 24.6425 145.52 25.0983 144.956 25.0983H122.843C122.28 25.0983 121.823 24.6425 121.823 24.0802C121.823 23.5179 122.28 23.062 122.843 23.062Z" fill="#EFF3FC"/>
<path d="M132.311 27.2231H144.956C145.52 27.2231 145.976 27.679 145.976 28.2413V28.2413C145.976 28.8036 145.52 29.2595 144.956 29.2595H132.311C131.748 29.2595 131.291 28.8036 131.291 28.2413V28.2413C131.291 27.679 131.748 27.2231 132.311 27.2231Z" fill="#EFF3FC"/>
<path d="M158.171 40.3203H180.284C180.847 40.3203 181.304 40.7762 181.304 41.3385V41.3385C181.304 41.9008 180.847 42.3566 180.284 42.3566H158.171C157.607 42.3566 157.151 41.9008 157.151 41.3385C157.151 40.7762 157.607 40.3203 158.171 40.3203Z" fill="#EFF3FC"/>
<path d="M167.639 44.481H180.284C180.847 44.481 181.304 44.9368 181.304 45.4991C181.304 46.0614 180.847 46.5173 180.284 46.5173H167.639C167.076 46.5173 166.619 46.0614 166.619 45.4991C166.619 44.9368 167.076 44.481 167.639 44.481Z" fill="#EFF3FC"/>
<path d="M151.086 37.4015C151.086 36.9438 151.458 36.5728 151.917 36.5728C152.375 36.5728 152.747 36.9438 152.747 37.4015V47.6432C152.747 48.101 152.375 48.472 151.917 48.472C151.458 48.472 151.086 48.101 151.086 47.6432V37.4015Z" fill="#EFF3FC"/>
<path d="M151.086 41.3928C151.086 40.935 151.458 40.564 151.917 40.564C152.375 40.564 152.747 40.935 152.747 41.3928V47.6433C152.747 48.1011 152.375 48.4721 151.917 48.4721C151.458 48.4721 151.086 48.1011 151.086 47.6433V41.3928Z" fill="#357C49"/>
<path d="M143.496 37.4015C143.496 36.9438 143.868 36.5728 144.326 36.5728C144.785 36.5728 145.157 36.9438 145.157 37.4015V47.6432C145.157 48.101 144.785 48.472 144.326 48.472C143.868 48.472 143.496 48.101 143.496 47.6432V37.4015Z" fill="#EFF3FC"/>
<path d="M143.496 39.5851C143.496 39.1274 143.868 38.7563 144.326 38.7563C144.785 38.7563 145.157 39.1274 145.157 39.5851V47.6432C145.157 48.1009 144.785 48.472 144.326 48.472C143.868 48.472 143.496 48.1009 143.496 47.6432V39.5851Z" fill="#357C49"/>
<path d="M147.291 37.4015C147.291 36.9438 147.663 36.5728 148.122 36.5728C148.58 36.5728 148.952 36.9438 148.952 37.4015V47.6432C148.952 48.101 148.58 48.472 148.122 48.472C147.663 48.472 147.291 48.101 147.291 47.6432V37.4015Z" fill="#EFF3FC"/>
<path d="M147.291 43.2892C147.291 42.8315 147.663 42.4604 148.122 42.4604C148.58 42.4604 148.952 42.8315 148.952 43.2892V47.6433C148.952 48.101 148.58 48.4721 148.122 48.4721C147.663 48.4721 147.291 48.101 147.291 47.6433V43.2892Z" fill="#357C49"/>
<path d="M139.701 37.4015C139.701 36.9438 140.073 36.5728 140.531 36.5728C140.99 36.5728 141.362 36.9438 141.362 37.4015V47.6432C141.362 48.101 140.99 48.472 140.531 48.472C140.073 48.472 139.701 48.101 139.701 47.6432V37.4015Z" fill="#EFF3FC"/>
<path d="M139.701 42.5222C139.701 42.0644 140.073 41.6934 140.531 41.6934C140.99 41.6934 141.362 42.0644 141.362 42.5222V47.6431C141.362 48.1008 140.99 48.4718 140.531 48.4718C140.073 48.4718 139.701 48.1008 139.701 47.6431V42.5222Z" fill="#357C49"/>
<path d="M135.906 37.4015C135.906 36.9438 136.278 36.5728 136.736 36.5728C137.195 36.5728 137.567 36.9438 137.567 37.4015V47.6432C137.567 48.101 137.195 48.472 136.736 48.472C136.278 48.472 135.906 48.101 135.906 47.6432V37.4015Z" fill="#EFF3FC"/>
<path d="M135.906 45.3469C135.906 44.8891 136.278 44.5181 136.736 44.5181C137.195 44.5181 137.567 44.8891 137.567 45.3469V47.6434C137.567 48.1011 137.195 48.4721 136.736 48.4721C136.278 48.4721 135.906 48.1011 135.906 47.6434V45.3469Z" fill="#357C49"/>
<path d="M128.316 37.4015C128.316 36.9438 128.688 36.5728 129.146 36.5728C129.605 36.5728 129.977 36.9438 129.977 37.4015V47.6432C129.977 48.101 129.605 48.472 129.146 48.472C128.688 48.472 128.316 48.101 128.316 47.6432V37.4015Z" fill="#EFF3FC"/>
<path d="M128.316 42.5222C128.316 42.0644 128.688 41.6934 129.146 41.6934C129.605 41.6934 129.977 42.0644 129.977 42.5222V47.6431C129.977 48.1008 129.605 48.4718 129.146 48.4718C128.688 48.4718 128.316 48.1008 128.316 47.6431V42.5222Z" fill="#357C49"/>
<path d="M132.111 37.4015C132.111 36.9438 132.483 36.5728 132.941 36.5728C133.4 36.5728 133.772 36.9438 133.772 37.4015V47.6432C133.772 48.101 133.4 48.472 132.941 48.472C132.483 48.472 132.111 48.101 132.111 47.6432V37.4015Z" fill="#EFF3FC"/>
<path d="M132.111 44.4074C132.111 43.9497 132.483 43.5786 132.941 43.5786C133.4 43.5786 133.772 43.9497 133.772 44.4074V47.6431C133.772 48.1008 133.4 48.4718 132.941 48.4718C132.483 48.4718 132.111 48.1008 132.111 47.6431V44.4074Z" fill="#357C49"/>
<path d="M124.521 37.4015C124.521 36.9438 124.893 36.5728 125.351 36.5728C125.81 36.5728 126.182 36.9438 126.182 37.4015V47.6432C126.182 48.101 125.81 48.472 125.351 48.472C124.893 48.472 124.521 48.101 124.521 47.6432V37.4015Z" fill="#EFF3FC"/>
<path d="M124.521 46.0822C124.521 45.6245 124.893 45.2534 125.351 45.2534C125.81 45.2534 126.182 45.6245 126.182 46.0822V47.6431C126.182 48.1008 125.81 48.4719 125.351 48.4719C124.893 48.4719 124.521 48.1008 124.521 47.6431V46.0822Z" fill="#357C49"/>
<path d="M130.312 3.75879C129.295 3.96014 128.333 4.37681 127.491 4.9807" stroke="#2976DF" stroke-width="0.5" stroke-linecap="round" stroke-linejoin="round"/>
<path d="M170.974 36.436C170.388 37.0215 169.655 37.44 168.853 37.6484" stroke="#EFF3FC" stroke-width="0.5" stroke-linecap="round" stroke-linejoin="round"/>
<path d="M3.90854 13.4541H99.451C101.355 13.4541 102.899 14.9949 102.899 16.8957V84.3731C102.899 86.2738 101.355 87.8146 99.451 87.8146H3.90854C2.0041 87.8146 0.460236 86.2738 0.460236 84.3731V16.8957C0.460236 14.9949 2.0041 13.4541 3.90854 13.4541Z" fill="#FACCC4"/>
<mask id="mask16_209_462" style="mask-type:luminance" maskUnits="userSpaceOnUse" x="0" y="13" width="103" height="75">
<path d="M3.90854 13.4541H99.451C101.355 13.4541 102.899 14.9949 102.899 16.8957V84.3731C102.899 86.2738 101.355 87.8146 99.451 87.8146H3.90854C2.0041 87.8146 0.460236 86.2738 0.460236 84.3731V16.8957C0.460236 14.9949 2.0041 13.4541 3.90854 13.4541Z" fill="white"/>
</mask>
<g mask="url(#mask16_209_462)">
<path d="M-6.18265 10.7178H107.818V23.916H-6.18265V10.7178Z" fill="#9879C9"/>
<mask id="mask17_209_462" style="mask-type:luminance" maskUnits="userSpaceOnUse" x="-7" y="10" width="115" height="14">
<path d="M-6.18265 10.7178H107.818V23.916H-6.18265V10.7178Z" fill="white"/>
</mask>
<g mask="url(#mask17_209_462)">
<path d="M112.241 24.5497C4.11069 25.5154 -7.25868 18.33 -1.69492 5.19195C3.86884 -7.94608 -9.43581 18.343 -9.43581 18.343L-7.01678 30.8268L24.6724 31.7926L94.908 30.344" fill="#6F4EB9"/>
</g>
<path d="M-6.18265 10.7178H107.818V23.916H-6.18265V10.7178Z" stroke="#190000" stroke-width="0.5" stroke-linecap="round" stroke-linejoin="round"/>
<path d="M56.3461 87.8144C67.4566 83.3632 13.05 94.1039 -3.27193 78.2128C-19.5939 62.3217 -3.27193 95.8212 -3.27193 95.8212L39.4384 101.041" fill="#ED707B"/>
</g>
<path d="M3.90854 13.4541H99.451C101.355 13.4541 102.899 14.9949 102.899 16.8957V84.3731C102.899 86.2738 101.355 87.8146 99.451 87.8146H3.90854C2.0041 87.8146 0.460236 86.2738 0.460236 84.3731V16.8957C0.460236 14.9949 2.0041 13.4541 3.90854 13.4541Z" stroke="#190000" stroke-width="0.5" stroke-linecap="round" stroke-linejoin="round"/>
<path d="M96.7826 20.2143C95.7472 20.2143 94.9079 19.3766 94.9079 18.3433C94.9079 17.3099 95.7472 16.4722 96.7826 16.4722C97.818 16.4722 98.6573 17.3099 98.6573 18.3433C98.6573 19.3766 97.818 20.2143 96.7826 20.2143Z" fill="#D3575E" stroke="#190000" stroke-width="0.5" stroke-linecap="round" stroke-linejoin="round"/>
<path d="M91.1102 20.2143C90.0749 20.2143 89.2355 19.3766 89.2355 18.3433C89.2355 17.3099 90.0749 16.4722 91.1102 16.4722C92.1456 16.4722 92.985 17.3099 92.985 18.3433C92.985 19.3766 92.1456 20.2143 91.1102 20.2143Z" fill="#FBD164" stroke="#190000" stroke-width="0.5" stroke-linecap="round" stroke-linejoin="round"/>
<path d="M85.4378 20.2143C84.4024 20.2143 83.563 19.3766 83.563 18.3433C83.563 17.3099 84.4024 16.4722 85.4378 16.4722C86.4732 16.4722 87.3125 17.3099 87.3125 18.3433C87.3125 19.3766 86.4732 20.2143 85.4378 20.2143Z" fill="#357C49" stroke="#190000" stroke-width="0.5" stroke-linecap="round" stroke-linejoin="round"/>
<path d="M12.5171 29.4331H90.8424C93.2044 29.4331 95.1191 31.3441 95.1191 33.7015V75.4542C95.1191 77.8116 93.2044 79.7226 90.8424 79.7226H12.5171C10.1552 79.7226 8.24037 77.8116 8.24037 75.4542V33.7015C8.24037 31.3441 10.1552 29.4331 12.5171 29.4331Z" fill="#EFF3FC"/>
<mask id="mask18_209_462" style="mask-type:luminance" maskUnits="userSpaceOnUse" x="8" y="29" width="88" height="51">
<path d="M12.5171 29.4331H90.8424C93.2044 29.4331 95.1191 31.3441 95.1191 33.7015V75.4542C95.1191 77.8116 93.2044 79.7226 90.8424 79.7226H12.5171C10.1552 79.7226 8.24037 77.8116 8.24037 75.4542V33.7015C8.24037 31.3441 10.1552 29.4331 12.5171 29.4331Z" fill="white"/>
</mask>
<g mask="url(#mask18_209_462)">
<path d="M96.1317 62.1484C99.451 87.8146 21.1212 79.2236 21.1212 79.2236L25.2915 92.5267L96.7826 84.9126L108.942 69.5196" fill="#D6DCF2"/>
</g>
<path d="M12.5171 29.4331H90.8424C93.2044 29.4331 95.1191 31.3441 95.1191 33.7015V75.4542C95.1191 77.8116 93.2044 79.7226 90.8424 79.7226H12.5171C10.1552 79.7226 8.24037 77.8116 8.24037 75.4542V33.7015C8.24037 31.3441 10.1552 29.4331 12.5171 29.4331Z" stroke="#190000" stroke-width="0.5" stroke-linecap="round" stroke-linejoin="round"/>
<path d="M46.4752 58.9044H36.863L34.7963 65.8464H29.5457L38.6359 38.7007H45.0014L54.085 65.8464H48.5419L46.4752 58.9044ZM45.1615 54.582L41.6851 42.8259L38.1766 54.582H45.1615Z" fill="#357C49" stroke="#190000" stroke-width="0.5" stroke-linecap="round" stroke-linejoin="round"/>
<path d="M75.7364 61.2295C75.7364 63.3467 75.7844 64.8857 75.8699 65.8464H71.6031C71.6031 65.7584 71.5764 65.4475 71.523 64.9137C71.4696 64.378 71.4269 63.6958 71.4055 62.8671C70.7214 63.9458 69.7658 64.8265 68.634 65.4213C67.5072 66.0103 66.2363 66.3047 64.8104 66.3047C63.2652 66.3135 61.7542 65.8509 60.4796 64.979C59.1712 64.0942 58.1335 62.8551 57.3663 61.2615C56.6 59.6692 56.2173 57.8465 56.2181 55.7932C56.2181 53.7412 56.6009 51.9131 57.3663 50.3089C58.1299 48.7046 59.1677 47.4601 60.4796 46.5754C61.7542 45.7035 63.2652 45.2409 64.8104 45.2496C66.2362 45.2496 67.5019 45.5494 68.618 46.1504C69.7407 46.7562 70.6978 47.6272 71.4055 48.6873C71.4269 47.9012 71.4696 47.2363 71.523 46.69C71.5764 46.145 71.6031 45.8177 71.6031 45.708H75.8699C75.7844 46.6687 75.7364 48.2076 75.7364 50.3249L75.7364 61.2295ZM70.9463 55.7932C70.9463 53.7412 70.487 52.0988 69.5685 50.8658C68.65 49.632 67.4467 49.0151 65.9586 49.0151C65.0319 49.0036 64.1273 49.2972 63.3846 49.8505C62.6317 50.4061 62.046 51.1971 61.6277 52.2236C61.2165 53.2509 61.0101 54.4407 61.0083 55.7932C61.0083 57.1256 61.2148 58.3043 61.6277 59.3294C62.0443 60.3567 62.6299 61.1482 63.3846 61.7038C64.1273 62.2571 65.0319 62.5508 65.9586 62.5392C67.4485 62.5392 68.6518 61.9223 69.5685 60.6885C70.487 59.456 70.9463 57.8242 70.9463 55.7932Z" fill="#357C49" stroke="#190000" stroke-width="0.5" stroke-linecap="round" stroke-linejoin="round"/>
<path d="M20.526 16.9526L18.9345 18.3047" stroke="#6F4EB9" stroke-width="11" stroke-linecap="round" stroke-linejoin="round"/>
<path d="M77.677 68.791C76.0069 70.3161 73.7993 71.1186 71.5376 71.0228" stroke="#D6DCF2" stroke-width="0.5" stroke-linecap="round" stroke-linejoin="round"/>
<path d="M111.614 141.087C107.29 149.677 119.593 154.322 119.593 154.322L142.2 151.041L155.276 106.137L143.751 100.165C135.994 98.6161 135.644 125.368 132.984 138.64L111.614 141.087Z" fill="#409159"/>
<mask id="mask19_209_462" style="mask-type:luminance" maskUnits="userSpaceOnUse" x="110" y="100" width="46" height="55">
<path d="M111.614 141.087C107.29 149.677 119.593 154.322 119.593 154.322L142.2 151.041L155.276 106.137L143.751 100.165C135.994 98.6161 135.644 125.368 132.984 138.64L111.614 141.087Z" fill="white"/>
</mask>
<g mask="url(#mask19_209_462)">
<path d="M145.293 112.971C136.493 107.507 137.86 113.726 136.214 134.85C135.191 147.977 127.611 155.818 127.902 158.967C128.193 162.117 142.2 151.041 142.2 151.041L158.696 136.565" fill="#357C49"/>
</g>
<path d="M111.614 141.087C107.29 149.677 119.593 154.322 119.593 154.322L142.2 151.041L155.276 106.137L143.751 100.165C135.994 98.6161 135.644 125.368 132.984 138.64L111.614 141.087Z" stroke="#190000" stroke-width="0.5" stroke-linecap="round" stroke-linejoin="round"/>
<path d="M140.012 113.151C137.975 126.789 135.82 147.027 139.98 152.181C139.98 152.181 187.616 155.039 190.95 154.035C194.284 153.032 192.511 116.976 192.511 116.976C192.511 116.976 190.649 99.668 186.748 98.0078C184.701 97.1364 160.485 88.0394 142.2 100.242" fill="#409159"/>
<mask id="mask20_209_462" style="mask-type:luminance" maskUnits="userSpaceOnUse" x="137" y="93" width="56" height="62">
<path d="M140.012 113.151C137.975 126.789 135.82 147.027 139.98 152.181C139.98 152.181 187.616 155.039 190.95 154.035C194.284 153.032 192.511 116.976 192.511 116.976C192.511 116.976 190.649 99.668 186.748 98.0078C184.701 97.1364 160.485 88.0394 142.2 100.242" fill="white"/>
</mask>
<g mask="url(#mask20_209_462)">
<path d="M187.744 114.084C179.652 109.435 192.509 138.419 175.696 132.876L174.14 145.124L172.653 148.663C172.653 148.663 188.575 156.115 189.074 156.447C189.572 156.779 207.451 157.788 207.451 157.788L200.157 120.628L194.712 106.852" fill="#357C49"/>
<path d="M167.547 141.765C165.293 142.151 173.641 147.931 153.95 147.931C134.258 147.931 136.494 145.451 136.852 149.677C137.211 153.904 148.293 157.577 150.509 158.272C152.726 158.968 182.425 158.272 182.425 158.272L188.058 154.401V143.756" fill="#357C49"/>
<path d="M162.299 100.231C159.857 109.718 162.9 149.869 162.9 149.869L158.482 150.73C158.482 150.73 156.991 106.068 158.658 100.1" fill="#357C49"/>
</g>
<path d="M140.012 113.151C137.975 126.789 135.82 147.027 139.98 152.181C139.98 152.181 187.616 155.039 190.95 154.035C194.284 153.032 192.511 116.976 192.511 116.976C192.511 116.976 190.649 99.668 186.748 98.0078C184.701 97.1364 160.485 88.0394 142.2 100.242" stroke="#190000" stroke-width="0.5" stroke-linecap="round" stroke-linejoin="round"/>
<path d="M186.748 98.0078C196.722 98.6714 209.595 145.252 206.695 149.603C203.795 153.955 190.95 142.801 190.95 142.801C190.95 142.801 187.316 125.231 186.067 111.963" fill="#409159"/>
<path d="M186.748 98.0078C196.722 98.6714 209.595 145.252 206.695 149.603C203.795 153.955 190.95 142.801 190.95 142.801C190.95 142.801 187.316 125.231 186.067 111.963" stroke="#190000" stroke-width="0.5" stroke-linecap="round" stroke-linejoin="round"/>
<path d="M27.9473 149.677H220.344C222.904 149.677 224.98 151.749 224.98 154.305V154.305C224.98 156.86 222.904 158.932 220.344 158.932H27.9473C25.3867 158.932 23.3109 156.86 23.3109 154.305C23.3109 151.749 25.3867 149.677 27.9473 149.677Z" fill="#F08059"/>
<mask id="mask21_209_462" style="mask-type:luminance" maskUnits="userSpaceOnUse" x="23" y="149" width="202" height="10">
<path d="M27.9473 149.677H220.344C222.904 149.677 224.98 151.749 224.98 154.305V154.305C224.98 156.86 222.904 158.932 220.344 158.932H27.9473C25.3867 158.932 23.3109 156.86 23.3109 154.305C23.3109 151.749 25.3867 149.677 27.9473 149.677Z" fill="white"/>
</mask>
<g mask="url(#mask21_209_462)">
<path d="M200.107 146.494L202.182 149.604C202.182 149.604 206.721 162.405 176.461 155.769C146.201 149.133 164.283 153.211 138.069 154.401C111.856 155.59 99.1538 158.599 99.1538 158.599L89.4301 144.835L111.192 140.687L185.075 137.66" fill="#D35D3D"/>
</g>
<path d="M220.344 149.677H27.9472C25.3867 149.677 23.3109 151.749 23.3109 154.305V154.305C23.3109 156.86 25.3867 158.932 27.9472 158.932H220.344C222.904 158.932 224.98 156.86 224.98 154.305V154.305C224.98 151.749 222.904 149.677 220.344 149.677Z" stroke="#190000" stroke-width="0.5" stroke-linecap="round" stroke-linejoin="round"/>
<path d="M161.608 151.192L162.9 149.869L110.805 145.784L120.647 154.036L123.171 158.272L161.608 151.192Z" fill="#4B4D5C"/>
<mask id="mask22_209_462" style="mask-type:luminance" maskUnits="userSpaceOnUse" x="110" y="145" width="53" height="14">
<path d="M161.608 151.192L162.9 149.869L110.805 145.784L120.647 154.036L123.171 158.272L161.608 151.192Z" fill="white"/>
</mask>
<g mask="url(#mask22_209_462)">
<path d="M121.586 156.115L140.828 152.472C140.904 152.458 140.972 152.417 141.019 152.356C141.066 152.296 141.09 152.22 141.086 152.144C141.082 152.067 141.05 151.994 140.996 151.94C140.942 151.885 140.87 151.851 140.794 151.845C133.978 151.321 114.858 149.839 114.493 149.677C114.05 149.479 112.388 153.35 112.388 153.35" fill="#373947"/>
<path d="M121.586 156.115L140.828 152.472C140.904 152.458 140.972 152.417 141.019 152.356C141.066 152.296 141.09 152.22 141.086 152.144C141.082 152.067 141.05 151.994 140.996 151.94C140.942 151.885 140.87 151.851 140.794 151.845C133.978 151.321 114.858 149.839 114.493 149.677C114.05 149.479 112.388 153.35 112.388 153.35" stroke="#190000" stroke-width="0.5" stroke-linecap="round" stroke-linejoin="round"/>
</g>
<path d="M161.608 151.192L162.9 149.869L110.805 145.784L120.647 154.036L123.171 158.272L161.608 151.192Z" stroke="#190000" stroke-width="0.5" stroke-linecap="round" stroke-linejoin="round"/>
<path d="M162.9 149.869V150.938C162.9 151.286 162.776 151.624 162.551 151.89C162.326 152.156 162.013 152.335 161.669 152.393L123.033 158.932L122.755 157.69L162.9 149.869Z" fill="#373947" stroke="#190000" stroke-width="0.5" stroke-linecap="round" stroke-linejoin="round"/>
<path d="M74.5591 120.141L107.848 116.075C108.93 115.942 109.964 116.484 110.248 117.333L124.065 158.598L123.171 158.932L122.54 158.517L84.4963 156.496L72.8086 122.306C72.4679 121.309 73.2864 120.297 74.5591 120.141Z" fill="#373947"/>
<path d="M109.354 117.666L123.171 158.931L83.602 156.829L71.925 121.795C71.8724 121.637 71.8557 121.469 71.8762 121.304C71.8967 121.139 71.9538 120.981 72.0434 120.84C72.133 120.7 72.2529 120.581 72.3942 120.493C72.5355 120.405 72.6948 120.349 72.8604 120.33L106.954 116.408C108.036 116.275 109.069 116.817 109.354 117.666Z" fill="#4B4D5C"/>
<mask id="mask23_209_462" style="mask-type:luminance" maskUnits="userSpaceOnUse" x="71" y="116" width="53" height="43">
<path d="M109.354 117.666L123.171 158.931L83.602 156.829L71.925 121.795C71.8724 121.637 71.8557 121.469 71.8762 121.304C71.8967 121.139 71.9538 120.981 72.0434 120.84C72.133 120.7 72.2529 120.581 72.3942 120.493C72.5355 120.405 72.6948 120.349 72.8604 120.33L106.954 116.408C108.036 116.275 109.069 116.817 109.354 117.666Z" fill="white"/>
</mask>
<g mask="url(#mask23_209_462)">
<path d="M128.789 160.76C84.2404 162.088 79.5898 147.046 79.5898 147.046L79.0279 160.539L94.3395 165.906L110.693 166.744" fill="#3E404C"/>
</g>
<path d="M109.354 117.666L123.171 158.931L83.602 156.829L71.925 121.795C71.8724 121.637 71.8557 121.469 71.8762 121.304C71.8967 121.139 71.9538 120.981 72.0434 120.84C72.133 120.7 72.2529 120.581 72.3942 120.493C72.5355 120.405 72.6948 120.349 72.8604 120.33L106.954 116.408C108.036 116.275 109.069 116.817 109.354 117.666Z" stroke="#190000" stroke-width="0.5" stroke-linecap="round" stroke-linejoin="round"/>
<path d="M153.566 62.3416C154.96 61.6543 156.552 61.4756 158.087 61.7282L171.332 63.909C176.945 64.8332 179.864 71.1084 176.948 75.9843L169.744 88.0335L169.521 88.8368L169.433 88.5535L167.341 92.0512C167.341 92.0512 158.063 93.8696 150.403 79.018C144.978 68.498 150.11 64.0446 153.566 62.3416Z" fill="#4B4D5C" stroke="#190000" stroke-width="0.5" stroke-linecap="round" stroke-linejoin="round"/>
<path d="M160.987 89.1219C157.36 89.4988 149.196 88.6996 148.184 86.0789C146.03 80.4994 151.542 67.3935 156.612 65.5542C153.406 74.3718 160.944 79.444 165.081 81.4839L164.4 83.9064" fill="#FACCC4"/>
<path d="M160.987 89.1219C157.36 89.4988 149.196 88.6996 148.184 86.0789C146.03 80.4994 151.542 67.3935 156.612 65.5542C153.406 74.3718 160.944 79.444 165.081 81.4839L164.4 83.9064" stroke="#190000" stroke-width="0.5" stroke-linecap="round" stroke-linejoin="round"/>
<path d="M161.782 80.2117C169.588 74.6253 171.896 84.9001 163.333 84.8097L161.782 80.2117Z" fill="#FACCC4"/>
<path d="M161.782 80.2117C169.588 74.6253 171.896 84.9001 163.333 84.8097" stroke="#190000" stroke-width="0.5" stroke-linecap="round" stroke-linejoin="round"/>
<path d="M163.202 65.0332C163.024 65.5317 162.951 66.0617 162.989 66.5896C163.027 67.1175 163.175 67.6318 163.423 68.0997" stroke="#373947" stroke-width="11" stroke-linecap="round" stroke-linejoin="round"/>
<path d="M154.65 73.2957C154.443 73.1726 154.194 73.1369 153.96 73.1965C153.726 73.2561 153.525 73.4061 153.402 73.6135L152.617 74.934C152.493 75.1414 152.457 75.3892 152.517 75.6229C152.577 75.8566 152.727 76.057 152.935 76.1801C153.143 76.3032 153.391 76.3388 153.625 76.2792C153.859 76.2196 154.06 76.0697 154.183 75.8623L154.969 74.5417C155.092 74.3343 155.128 74.0865 155.068 73.8528C155.008 73.6192 154.858 73.4187 154.65 73.2957Z" fill="#190000"/>
<path d="M155.502 70.2639C157.931 71.5611 157.876 72.8523 156.304 72.1402C154.733 71.4281 153.915 69.4163 155.502 70.2639Z" fill="#190000"/>
<path d="M151.628 73.5586C147.648 73.6947 146.911 77.357 149.34 77.822L151.628 73.5586Z" fill="#FACCC4"/>
<path d="M151.628 73.5586C147.648 73.6947 146.911 77.357 149.34 77.822" stroke="#190000" stroke-width="0.5" stroke-linecap="round" stroke-linejoin="round"/>
<path opacity="0.27" d="M154.965 79.7285C153.896 79.3187 153.274 78.3482 153.577 77.5609C153.88 76.7736 154.992 76.4676 156.062 76.8775C157.132 77.2874 157.753 78.2578 157.451 79.0451C157.148 79.8324 156.035 80.1384 154.965 79.7285Z" fill="#ED707B"/>
<path d="M153.626 79.7473C151.735 80.7124 150.241 79.6152 150.241 79.6152L153.626 79.7473Z" fill="#FACCC4"/>
<path d="M153.626 79.7473C151.735 80.7124 150.241 79.6152 150.241 79.6152" stroke="#190000" stroke-width="0.5" stroke-linecap="round" stroke-linejoin="round"/>
<path d="M164.801 81.0026C165.205 80.6802 165.892 80.8273 166.128 81.2869C166.364 81.7464 166.082 82.3886 165.584 82.5276" stroke="#373947" stroke-width="11" stroke-linecap="round" stroke-linejoin="round"/>
<path d="M153.566 62.3416C154.96 61.6543 156.552 61.4756 158.087 61.7282L171.332 63.909C176.945 64.8332 179.864 71.1084 176.948 75.9843L169.744 88.0335L169.521 88.8368L169.433 88.5535L167.341 92.0512C167.341 92.0512 158.063 93.8696 150.403 79.018C144.978 68.498 150.11 64.0446 153.566 62.3416Z" fill="#4B4D5C" stroke="#190000" stroke-width="0.5" stroke-linecap="round" stroke-linejoin="round"/>
<path d="M158.222 96.7692L153.865 82.1611L167.565 82.6719L170.732 95.8111L166.9 98.3825L159.661 101.291L157.416 99.1077" fill="#FACCC4"/>
<mask id="mask24_209_462" style="mask-type:luminance" maskUnits="userSpaceOnUse" x="153" y="82" width="18" height="20">
<path d="M158.222 96.7692L153.865 82.1611L167.565 82.6719L170.732 95.8111L166.9 98.3825L159.661 101.291L157.416 99.1077" fill="white"/>
</mask>
<g mask="url(#mask24_209_462)">
<path d="M161.782 87.5489C167.341 92.0507 157.37 94.2852 156.931 97.8037C156.491 101.322 151.106 91.7768 151.106 91.7768L152.062 85.0189L159.899 83.1523" fill="#ED707B"/>
</g>
<path d="M158.222 96.7692L153.865 82.1611L167.565 82.6719L170.732 95.8111L166.9 98.3825L159.661 101.291L157.416 99.1077" stroke="#190000" stroke-width="0.5" stroke-linecap="round" stroke-linejoin="round"/>
<path d="M164.478 89.21C160.851 89.5869 149.196 88.6996 148.184 86.0789C146.03 80.4994 151.542 67.3935 156.612 65.5542C153.406 74.3718 160.944 79.4439 165.081 81.4839L164.4 83.9064" fill="#FACCC4"/>
<path d="M164.478 89.21C160.851 89.5869 149.196 88.6996 148.184 86.0789C146.03 80.4994 151.542 67.3935 156.612 65.5542C153.406 74.3718 160.944 79.4439 165.081 81.4839L164.4 83.9064" stroke="#190000" stroke-width="0.5" stroke-linecap="round" stroke-linejoin="round"/>
<path d="M161.782 80.2117C169.588 74.6253 171.896 84.9001 163.333 84.8097L161.782 80.2117Z" fill="#FACCC4"/>
<path d="M161.782 80.2117C169.588 74.6253 171.896 84.9001 163.333 84.8097" stroke="#190000" stroke-width="0.5" stroke-linecap="round" stroke-linejoin="round"/>
<path d="M163.202 65.0332C163.024 65.5317 162.951 66.0617 162.989 66.5896C163.027 67.1175 163.175 67.6318 163.423 68.0997" stroke="#373947" stroke-width="0.5" stroke-linecap="round" stroke-linejoin="round"/>
<path d="M154.65 73.2957C154.443 73.1726 154.194 73.1369 153.96 73.1965C153.726 73.2561 153.525 73.4061 153.402 73.6135L152.617 74.934C152.493 75.1414 152.457 75.3892 152.517 75.6229C152.577 75.8566 152.727 76.057 152.935 76.1801C153.143 76.3032 153.391 76.3388 153.625 76.2792C153.859 76.2196 154.06 76.0697 154.183 75.8623L154.969 74.5417C155.092 74.3343 155.128 74.0865 155.068 73.8528C155.008 73.6192 154.858 73.4187 154.65 73.2957Z" fill="#190000"/>
<path d="M155.502 70.2639C157.931 71.5611 157.876 72.8523 156.304 72.1402C154.733 71.4281 153.915 69.4163 155.502 70.2639Z" fill="#190000"/>
<path d="M151.628 73.5586C147.648 73.6947 146.911 77.357 149.34 77.822L151.628 73.5586Z" fill="#FACCC4"/>
<path d="M151.628 73.5586C147.648 73.6947 146.911 77.357 149.34 77.822" stroke="#190000" stroke-width="0.5" stroke-linecap="round" stroke-linejoin="round"/>
<path opacity="0.27" d="M154.965 79.7285C153.896 79.3187 153.274 78.3482 153.577 77.5609C153.88 76.7736 154.992 76.4676 156.062 76.8775C157.132 77.2874 157.753 78.2578 157.451 79.0451C157.148 79.8324 156.035 80.1384 154.965 79.7285Z" fill="#ED707B"/>
<path d="M153.626 79.7473C151.735 80.7124 150.241 79.6152 150.241 79.6152" stroke="#993443" stroke-width="0.5" stroke-linecap="round" stroke-linejoin="round"/>
<path d="M164.801 81.0026C165.205 80.6802 165.892 80.8273 166.128 81.2869C166.364 81.7464 166.082 82.3886 165.584 82.5276" stroke="#373947" stroke-width="0.5" stroke-linecap="round" stroke-linejoin="round"/>
<path d="M162.624 103.599C160.887 101.287 159.661 101.292 159.661 101.292L169.845 90.9756C169.845 90.9756 174.035 93.4125 174.14 94.8952C174.14 94.8952 163.122 104.262 162.624 103.599Z" fill="white" stroke="#190000" stroke-width="0.5" stroke-linecap="round" stroke-linejoin="round"/>
<path d="M158.077 103.191C158.077 103.191 158.605 101.445 159.661 101.291L157.023 92.5474C154.99 92.8957 154.385 95.7451 154.385 95.7451L158.077 103.191Z" fill="white" stroke="#190000" stroke-width="0.5" stroke-linecap="round" stroke-linejoin="round"/>
<path d="M136.687 118.291C137.405 118.67 138.205 118.67 138.677 118.291L148.775 110.172C149.216 110.494 149.562 110.923 149.717 111.397L154.301 125.487C154.625 126.483 153.98 127.29 152.86 127.29H128.359C127.24 127.29 126.069 126.483 125.746 125.487L121.161 111.397C121.007 110.923 121.074 110.494 121.306 110.172L136.687 118.291Z" fill="#FBD164"/>
<mask id="mask25_209_462" style="mask-type:luminance" maskUnits="userSpaceOnUse" x="121" y="110" width="34" height="18">
<path d="M136.687 118.291C137.405 118.67 138.205 118.67 138.677 118.291L148.775 110.172C149.216 110.494 149.562 110.923 149.717 111.397L154.301 125.487C154.625 126.483 153.98 127.29 152.86 127.29H128.359C127.24 127.29 126.069 126.483 125.746 125.487L121.161 111.397C121.007 110.923 121.074 110.494 121.306 110.172L136.687 118.291Z" fill="white"/>
</mask>
<g mask="url(#mask25_209_462)">
<path d="M153.169 120.115C152.337 119.453 152.083 117.828 152.083 117.828L143.275 122.19C143.275 122.19 143.777 124.574 146.104 124.211C148.431 123.848 143.195 127.913 142.447 127.996C141.699 128.078 152.583 128.493 152.583 128.493L154.987 125.673" fill="#F9B964"/>
</g>
<path d="M136.687 118.291C137.405 118.67 138.205 118.67 138.677 118.291L148.775 110.172C149.216 110.494 149.562 110.923 149.717 111.397L154.301 125.487C154.625 126.483 153.98 127.29 152.86 127.29H128.359C127.24 127.29 126.069 126.483 125.746 125.487L121.161 111.397C121.007 110.923 121.074 110.494 121.306 110.172L136.687 118.291Z" stroke="#190000" stroke-width="0.5" stroke-linecap="round" stroke-linejoin="round"/>
<path d="M136.687 118.29L121.306 110.172C121.56 109.817 122.015 109.594 122.602 109.594H147.103C147.707 109.608 148.292 109.81 148.775 110.172L138.677 118.29C138.205 118.67 137.405 118.67 136.687 118.29Z" fill="#F9B964" stroke="#190000" stroke-width="0.5" stroke-linecap="round" stroke-linejoin="round"/>
<path d="M174.14 134.204L162.968 129.613C162.968 129.613 159.55 120.561 158.324 120.124C157.428 119.804 153.913 118.505 152.083 117.828C151.733 117.698 151.359 117.645 150.986 117.671C150.613 117.698 150.251 117.804 149.922 117.982C147.99 119.027 143.979 121.13 143.252 120.998C143.252 120.998 142.309 124.21 147.02 122.485C147.02 122.485 147.195 124.059 147.896 125.021C147.896 125.021 147.984 127.208 148.597 127.732C148.597 127.732 149.561 130.093 151.138 130.881C151.138 130.881 158.017 135.778 158.696 136.565C159.375 137.352 174.14 143.212 174.14 143.212L174.14 134.204Z" fill="#FACCC4"/>
<mask id="mask26_209_462" style="mask-type:luminance" maskUnits="userSpaceOnUse" x="143" y="117" width="32" height="27">
<path d="M174.14 134.204L162.968 129.613C162.968 129.613 159.55 120.561 158.324 120.124C157.428 119.804 153.913 118.505 152.083 117.828C151.733 117.698 151.359 117.645 150.986 117.671C150.613 117.698 150.251 117.804 149.922 117.982C147.99 119.027 143.979 121.13 143.252 120.998C143.252 120.998 142.309 124.21 147.02 122.485C147.02 122.485 147.195 124.059 147.896 125.021C147.896 125.021 147.984 127.208 148.597 127.732C148.597 127.732 149.561 130.093 151.138 130.881C151.138 130.881 158.017 135.778 158.696 136.565C159.375 137.352 174.14 143.212 174.14 143.212L174.14 134.204Z" fill="white"/>
</mask>
<g mask="url(#mask26_209_462)">
<path d="M168.711 133.097L167.963 132.557C167.963 132.557 169.593 134.173 167.852 131.802C166.388 129.807 166.605 141.17 164.306 140.687C162.006 140.203 169.344 142.118 169.344 142.118" fill="#ED707B"/>
</g>
<path d="M174.14 134.204L162.968 129.613C162.968 129.613 159.55 120.561 158.324 120.124C157.428 119.804 153.913 118.505 152.083 117.828C151.733 117.698 151.359 117.645 150.986 117.671C150.613 117.698 150.251 117.804 149.922 117.982C147.99 119.027 143.979 121.13 143.252 120.998C143.252 120.998 142.309 124.21 147.02 122.485C147.02 122.485 147.195 124.059 147.896 125.021C147.896 125.021 147.984 127.208 148.597 127.732C148.597 127.732 149.561 130.093 151.138 130.881C151.138 130.881 158.017 135.778 158.696 136.565C159.375 137.352 174.14 143.212 174.14 143.212L174.14 134.204Z" stroke="#190000" stroke-width="0.5" stroke-linecap="round" stroke-linejoin="round"/>
<path d="M171.62 143.756L167.547 141.765C167.547 141.765 166.301 132.226 168.046 131.23L172.035 133.138" fill="white"/>
<path d="M171.62 143.756L167.547 141.765C167.547 141.765 166.301 132.226 168.046 131.23L172.035 133.138" stroke="#190000" stroke-width="0.5" stroke-linecap="round" stroke-linejoin="round"/>
<path d="M195.746 138.393C184.832 134.143 170.014 131.802 170.014 131.802C167.52 135.12 170.285 147.728 170.285 147.728C170.285 147.728 201.333 161.121 206.695 149.603" fill="#409159"/>
<path d="M195.746 138.393C184.832 134.143 170.014 131.802 170.014 131.802C167.52 135.12 170.285 147.728 170.285 147.728C170.285 147.728 201.333 161.121 206.695 149.603" stroke="#190000" stroke-width="0.5" stroke-linecap="round" stroke-linejoin="round"/>
<path d="M92.5292 137.362C90.5237 135.922 89.7084 133.631 90.7082 132.243C91.7079 130.856 94.1442 130.899 96.1497 132.338C98.1552 133.778 98.9705 136.07 97.9707 137.457C96.971 138.844 94.5347 138.802 92.5292 137.362Z" fill="white" stroke="#190000" stroke-width="0.5" stroke-linecap="round" stroke-linejoin="round"/>
<path d="M159.661 106.855C159.457 106.855 159.292 106.69 159.292 106.486C159.292 106.283 159.457 106.118 159.661 106.118C159.865 106.118 160.03 106.283 160.03 106.486C160.03 106.69 159.865 106.855 159.661 106.855Z" fill="#409159" stroke="#190000" stroke-width="0.5" stroke-linecap="round" stroke-linejoin="round"/>
<path d="M159.661 116.423C159.457 116.423 159.292 116.258 159.292 116.055C159.292 115.851 159.457 115.686 159.661 115.686C159.865 115.686 160.03 115.851 160.03 116.055C160.03 116.258 159.865 116.423 159.661 116.423Z" fill="#409159" stroke="#190000" stroke-width="0.5" stroke-linecap="round" stroke-linejoin="round"/>
<path d="M160.399 144.493C160.195 144.493 160.03 144.328 160.03 144.124C160.03 143.921 160.195 143.756 160.399 143.756C160.603 143.756 160.769 143.921 160.769 144.124C160.769 144.328 160.603 144.493 160.399 144.493Z" fill="#409159" stroke="#190000" stroke-width="0.5" stroke-linecap="round" stroke-linejoin="round"/>
<path d="M175.697 111.975C168.783 114.509 180.846 118.784 175.088 124.209L173.462 124.061C180.406 119.814 166.657 114.316 175.239 111.575L175.697 111.975Z" fill="#409159" stroke="#190000" stroke-width="0.5" stroke-linecap="round" stroke-linejoin="round"/>
<path d="M175.469 110.507C178.582 102.119 169.618 101.633 174.247 110.218L175.469 110.507Z" fill="#F08059"/>
<path d="M175.469 110.507C178.582 102.119 169.618 101.633 174.247 110.218" stroke="#190000" stroke-width="0.5" stroke-linecap="round" stroke-linejoin="round"/>
<path d="M174.842 111.327C171.73 119.714 180.693 120.2 176.064 111.616L174.842 111.327Z" fill="#F08059"/>
<path d="M174.842 111.327C171.73 119.714 180.693 120.2 176.064 111.616" stroke="#190000" stroke-width="0.5" stroke-linecap="round" stroke-linejoin="round"/>
<path d="M174.64 110.512C164.863 105.469 166.468 114.142 174.618 111.642L174.64 110.512Z" fill="#F08059"/>
<path d="M174.64 110.512C164.863 105.469 166.468 114.142 174.618 111.642" stroke="#190000" stroke-width="0.5" stroke-linecap="round" stroke-linejoin="round"/>
<path d="M175.672 111.321C185.448 116.364 183.844 107.692 175.693 110.192L175.672 111.321Z" fill="#F08059"/>
<path d="M175.672 111.321C185.448 116.364 183.844 107.692 175.693 110.192" stroke="#190000" stroke-width="0.5" stroke-linecap="round" stroke-linejoin="round"/>
<path d="M175.012 110.341C170.3 100.844 165.097 106.633 174.133 110.935L175.012 110.341Z" fill="#F08059"/>
<path d="M175.012 110.341C170.3 100.844 165.097 106.633 174.133 110.935" stroke="#190000" stroke-width="0.5" stroke-linecap="round" stroke-linejoin="round"/>
<path d="M175.299 111.493C180.011 120.99 185.215 115.201 176.178 110.898L175.299 111.493Z" fill="#F08059"/>
<path d="M175.299 111.493C180.011 120.99 185.215 115.201 176.178 110.898" stroke="#190000" stroke-width="0.5" stroke-linecap="round" stroke-linejoin="round"/>
<path d="M174.569 110.92C165.455 113.285 172.928 119.762 175.418 111.923L174.569 110.92Z" fill="#F08059"/>
<path d="M174.569 110.92C165.455 113.285 172.928 119.762 175.418 111.923" stroke="#190000" stroke-width="0.5" stroke-linecap="round" stroke-linejoin="round"/>
<path d="M175.742 110.913C184.856 108.548 177.383 102.072 174.893 109.91L175.742 110.913Z" fill="#F08059"/>
<path d="M175.742 110.913C184.856 108.548 177.383 102.072 174.893 109.91" stroke="#190000" stroke-width="0.5" stroke-linecap="round" stroke-linejoin="round"/>
<path d="M173.541 112.806C172.214 111.716 171.835 109.987 172.694 108.945C173.554 107.903 175.326 107.942 176.654 109.032C177.981 110.122 178.36 111.851 177.5 112.893C176.641 113.936 174.868 113.897 173.541 112.806Z" fill="white" stroke="#190000" stroke-width="0.5" stroke-linecap="round" stroke-linejoin="round"/>
<path d="M174.155 119.758C170.316 121.73 168.298 117.128 168.298 117.128C168.298 117.128 173.804 116.074 174.155 119.758Z" fill="#409159" stroke="#190000" stroke-width="0.5" stroke-linecap="round" stroke-linejoin="round"/>
<path d="M174.551 146.578C174.231 146.578 173.972 146.32 173.972 146C173.972 145.681 174.231 145.422 174.551 145.422C174.871 145.422 175.13 145.681 175.13 146C175.13 146.32 174.871 146.578 174.551 146.578Z" fill="#409159" stroke="#190000" stroke-width="0.5" stroke-linecap="round" stroke-linejoin="round"/>
<path d="M183.4 149.003C183.08 149.003 182.821 148.744 182.821 148.425C182.821 148.105 183.08 147.847 183.4 147.847C183.72 147.847 183.979 148.105 183.979 148.425C183.979 148.744 183.72 149.003 183.4 149.003Z" fill="#409159" stroke="#190000" stroke-width="0.5" stroke-linecap="round" stroke-linejoin="round"/>
<path d="M89.1901 130.186C89.1901 130.186 89.9663 130.127 90.3371 130.858C90.3371 130.858 90.8711 131.91 91.4741 135.446C91.4741 135.446 91.6314 136.484 91.178 136.484H86.3599C86.0241 136.484 85.0677 136.287 84.7895 135.738L81.9712 130.186C81.9712 130.186 83.5761 128.651 82.5823 126.693C82.5976 126.591 82.1018 125.977 82.9912 125.977C82.9912 125.977 85.1937 126.182 85.9834 130.186H89.1901Z" fill="#FB81B2" stroke="#190000" stroke-width="0.5" stroke-linecap="round" stroke-linejoin="round"/>
<path d="M79.5837 130.187C79.5837 130.187 80.069 130.182 80.2873 130.612L83.1479 136.248C83.1479 136.248 83.2707 136.484 82.9245 136.484H81.2625C81.2625 136.484 80.8533 136.484 80.6724 136.127L77.4334 130.527C77.4334 130.527 77.267 130.187 77.6636 130.187H79.5837Z" fill="#FBD164" stroke="#190000" stroke-width="0.5" stroke-linecap="round" stroke-linejoin="round"/>
<path d="M98.8117 135.987L98.4004 141.504C98.3921 141.615 98.4069 141.727 98.4438 141.832C98.4808 141.937 98.539 142.034 98.615 142.115C98.691 142.197 98.783 142.262 98.8854 142.307C98.9877 142.351 99.0982 142.374 99.2098 142.374H106.468C106.636 142.374 106.8 142.322 106.937 142.225C107.074 142.129 107.178 141.992 107.234 141.834C107.289 141.676 107.295 141.505 107.249 141.343C107.203 141.182 107.109 141.039 106.978 140.934L100.131 135.417C100.016 135.324 99.8773 135.265 99.7306 135.245C99.5839 135.225 99.4345 135.245 99.2986 135.304C99.1627 135.363 99.0455 135.457 98.9597 135.578C98.8739 135.698 98.8227 135.84 98.8117 135.987Z" fill="#516DDB" stroke="#190000" stroke-width="0.5" stroke-linecap="round" stroke-linejoin="round"/>
<path d="M101.302 126.733L103.416 128.315" stroke="#373947" stroke-width="0.5" stroke-linecap="round" stroke-linejoin="round"/>
<path d="M144.578 138.066C144.519 138.604 144.591 139.148 144.787 139.652C144.983 140.157 145.297 140.606 145.704 140.964" stroke="#75AA3C" stroke-width="11" stroke-linecap="round" stroke-linejoin="round"/>
<path d="M215.983 153.106L213.209 155.084" stroke="#D35D3D" stroke-width="0.5" stroke-linecap="round" stroke-linejoin="round"/>
<path d="M224.198 78.9762L225.68 70.3243L200.515 50.6343L224.198 78.9762Z" fill="#914D44" stroke="#190000" stroke-width="0.5" stroke-linecap="round" stroke-linejoin="round"/>
<path d="M219.09 70.4517L222.345 71.3442L224.198 78.9761L211.43 64.8052L219.09 70.4517Z" fill="#F9B964" stroke="#190000" stroke-width="0.5" stroke-linecap="round" stroke-linejoin="round"/>
<path d="M204.336 75.763L222.345 71.3442L200.515 50.6343L204.336 75.763Z" fill="#FBD164"/>
<mask id="mask27_209_462" style="mask-type:luminance" maskUnits="userSpaceOnUse" x="200" y="50" width="23" height="26">
<path d="M204.336 75.763L222.345 71.3442L200.515 50.6343L204.336 75.763Z" fill="white"/>
</mask>
<g mask="url(#mask27_209_462)">
<path d="M202.319 62.5022C204.336 75.7631 203.617 74.3416 211.43 73.5033C219.244 72.6649 213.098 78.2539 213.098 78.2539L201.044 80.4895L201.417 62.4185" fill="#F9B964"/>
</g>
<path d="M204.336 75.763L222.345 71.3442L200.515 50.6343L204.336 75.763Z" stroke="#190000" stroke-width="0.5" stroke-linecap="round" stroke-linejoin="round"/>
<path d="M247.118 113.022L246.848 113.382C245.402 112.295 244.021 111.123 242.715 109.872L243.026 109.547C244.319 110.786 245.685 111.946 247.118 113.022Z" fill="#FBD164" stroke="#190000" stroke-width="0.5" stroke-linecap="round" stroke-linejoin="round"/>
<path d="M247.162 97.0178L247.08 97.4594C245.317 97.1344 243.535 96.9226 241.745 96.8256L241.769 96.377C243.579 96.4748 245.38 96.6889 247.162 97.0178Z" fill="#FBD164" stroke="#190000" stroke-width="0.5" stroke-linecap="round" stroke-linejoin="round"/>
<path d="M256.682 117.581L256.608 118.024C254.99 117.758 253.257 117.164 251.454 116.262L251.657 115.86C253.418 116.743 255.109 117.322 256.682 117.581Z" fill="#FBD164" stroke="#190000" stroke-width="0.5" stroke-linecap="round" stroke-linejoin="round"/>
<path d="M229.979 92.5098C230.856 93.9987 231.763 95.4569 232.677 96.8485C233.89 96.6549 235.116 96.5131 236.341 96.4244L236.373 96.873C234.585 97.0018 232.807 97.2445 231.05 97.5995L230.96 97.1588C231.368 97.0763 231.779 96.9996 232.192 96.9288C231.309 95.5816 230.436 94.1739 229.59 92.7376L229.979 92.5098Z" fill="#FBD164" stroke="#190000" stroke-width="0.5" stroke-linecap="round" stroke-linejoin="round"/>
<path d="M239.314 105.658L238.975 105.954C237.831 104.645 236.685 103.229 235.569 101.747L235.929 101.477C237.039 102.951 238.178 104.357 239.314 105.658Z" fill="#FBD164" stroke="#190000" stroke-width="0.5" stroke-linecap="round" stroke-linejoin="round"/>
<path d="M265.112 113.163L265.54 113.306C264.896 115.215 263.682 116.645 262.03 117.441L261.835 117.036C263.375 116.294 264.508 114.954 265.112 113.163Z" fill="#FBD164" stroke="#190000" stroke-width="0.5" stroke-linecap="round" stroke-linejoin="round"/>
<path d="M265.236 107.895L264.825 108.075C264.189 106.635 263.11 105.232 261.62 103.906L261.919 103.571C263.459 104.94 264.575 106.395 265.236 107.895Z" fill="#FBD164" stroke="#190000" stroke-width="0.5" stroke-linecap="round" stroke-linejoin="round"/>
<path d="M252.423 98.3696C254.146 98.9394 255.819 99.6519 257.424 100.499L257.211 100.896C255.629 100.06 253.979 99.3575 252.28 98.7954L252.423 98.3696Z" fill="#FBD164" stroke="#190000" stroke-width="0.5" stroke-linecap="round" stroke-linejoin="round"/>
<path d="M177.609 117.672L177.519 118.113C175.746 117.751 173.992 117.295 172.266 116.749L172.402 116.321C174.113 116.862 175.851 117.313 177.609 117.672Z" fill="#FBD164" stroke="#190000" stroke-width="0.5" stroke-linecap="round" stroke-linejoin="round"/>
<path d="M198.881 116.459C197.205 117.155 195.475 117.71 193.707 118.118L193.605 117.679C195.348 117.278 197.055 116.73 198.707 116.043L198.881 116.459Z" fill="#FBD164" stroke="#190000" stroke-width="0.5" stroke-linecap="round" stroke-linejoin="round"/>
<path d="M188.298 118.457L188.328 118.906C187.526 118.959 186.706 118.986 185.888 118.986C184.909 118.986 183.903 118.947 182.896 118.87L182.931 118.422C184.717 118.56 186.51 118.572 188.298 118.457Z" fill="#FBD164" stroke="#190000" stroke-width="0.5" stroke-linecap="round" stroke-linejoin="round"/>
<path d="M224.929 82.999C225.717 84.6421 226.532 86.2601 227.352 87.8087L226.954 88.0186C226.131 86.4651 225.313 84.8413 224.522 83.193L224.929 82.999Z" fill="#FBD164" stroke="#190000" stroke-width="0.5" stroke-linecap="round" stroke-linejoin="round"/>
<path d="M153.242 106.613C154.677 107.63 156.194 108.624 157.752 109.568L157.518 109.953C155.952 109.003 154.425 108.003 152.982 106.979L153.242 106.613Z" fill="#FBD164" stroke="#190000" stroke-width="0.5" stroke-linecap="round" stroke-linejoin="round"/>
<path d="M167.346 114.469L167.171 114.883C165.541 114.203 163.886 113.434 162.253 112.597L162.459 112.198C164.081 113.029 165.724 113.793 167.346 114.469Z" fill="#FBD164" stroke="#190000" stroke-width="0.5" stroke-linecap="round" stroke-linejoin="round"/>
<path d="M208.077 110.748C206.702 111.926 205.24 113.001 203.705 113.964L203.465 113.583C204.982 112.632 206.426 111.57 207.785 110.406L208.077 110.748Z" fill="#FBD164" stroke="#190000" stroke-width="0.5" stroke-linecap="round" stroke-linejoin="round"/>
<path d="M225.866 99.005C224.172 99.5864 222.518 100.279 220.916 101.079L220.713 100.677C222.334 99.8683 224.007 99.1678 225.72 98.5801L225.866 99.005Z" fill="#FBD164" stroke="#190000" stroke-width="0.5" stroke-linecap="round" stroke-linejoin="round"/>
<path d="M216.283 103.789C214.8 104.793 213.383 105.892 212.041 107.077L211.742 106.74C213.099 105.543 214.531 104.433 216.029 103.417L216.283 103.789Z" fill="#FBD164" stroke="#190000" stroke-width="0.5" stroke-linecap="round" stroke-linejoin="round"/>
<path d="M225.68 70.3243L235.239 67.694L200.515 50.6343L225.68 70.3243Z" fill="#FBD164" stroke="#190000" stroke-width="0.5" stroke-linecap="round" stroke-linejoin="round"/>
<path d="M206.375 65.7046C207.012 66.3505 207.784 66.848 208.636 67.1616" stroke="#D89D35" stroke-width="0.5" stroke-linecap="round" stroke-linejoin="round"/>
<path d="M54.6495 140.404C54.6495 135.113 50.3848 130.809 45.1427 130.809C39.9007 130.809 35.6361 135.113 35.6361 140.404C35.6361 145.695 39.9007 150 45.1427 150C50.3848 150 54.6495 145.695 54.6495 140.404ZM51.5468 140.404C51.5468 143.968 48.674 146.868 45.1427 146.868C41.6115 146.868 38.7388 143.968 38.7388 140.404C38.7388 136.84 41.6116 133.94 45.1427 133.94C48.6739 133.94 51.5468 136.84 51.5468 140.404Z" fill="#914D44" stroke="#190000" stroke-width="0.5" stroke-linecap="round" stroke-linejoin="round"/>
<path d="M56.2196 126.032C50.6326 126.032 46.1035 126.674 46.1034 127.465C46.1034 127.726 46.5988 127.971 47.4601 128.182C49.2095 127.753 52.4759 127.465 56.2196 127.465C59.9634 127.465 63.2297 127.753 64.9791 128.182C65.8404 127.971 66.3358 127.726 66.3358 127.465C66.3358 126.674 61.8066 126.032 56.2196 126.032Z" fill="#B06759" stroke="#190000" stroke-width="0.5" stroke-linecap="round" stroke-linejoin="round"/>
<path d="M56.2196 128.898C51.3819 128.898 47.4602 128.577 47.4602 128.181C47.4602 127.786 51.3819 127.465 56.2196 127.465C61.0574 127.465 64.9791 127.786 64.9791 128.181C64.9791 128.577 61.0574 128.898 56.2196 128.898Z" fill="white" stroke="#190000" stroke-width="0.5" stroke-linecap="round" stroke-linejoin="round"/>
<path d="M64.9791 128.181C63.2297 128.609 59.9634 128.898 56.2196 128.898C52.4759 128.898 49.2095 128.609 47.4601 128.181C46.5988 127.97 46.1034 127.726 46.1034 127.465V153.343C46.1034 154.134 50.6326 154.775 56.2196 154.775C61.8067 154.775 66.3358 154.134 66.3358 153.343V127.465C66.3358 127.726 65.8404 127.97 64.9791 128.181Z" fill="#B06759"/>
<mask id="mask28_209_462" style="mask-type:luminance" maskUnits="userSpaceOnUse" x="46" y="127" width="21" height="28">
<path d="M64.9791 128.181C63.2297 128.609 59.9634 128.898 56.2196 128.898C52.4759 128.898 49.2095 128.609 47.4601 128.181C46.5988 127.97 46.1034 127.726 46.1034 127.465V153.343C46.1034 154.134 50.6326 154.775 56.2196 154.775C61.8067 154.775 66.3358 154.134 66.3358 153.343V127.465C66.3358 127.726 65.8404 127.97 64.9791 128.181Z" fill="white"/>
</mask>
<g mask="url(#mask28_209_462)">
<path d="M73.5608 153.454C44.468 152.058 45.2581 136.361 45.1428 130.808C45.0274 125.255 41.3908 153.035 41.3908 153.035L42.7895 157.083C42.7895 157.083 52.2429 158.619 54.6496 159.038C57.0562 159.457 78.4562 154.775 78.4562 154.775" fill="#914D44"/>
</g>
<path d="M64.9791 128.181C63.2297 128.609 59.9634 128.898 56.2196 128.898C52.4759 128.898 49.2095 128.609 47.4601 128.181C46.5988 127.97 46.1034 127.726 46.1034 127.465V153.343C46.1034 154.134 50.6326 154.775 56.2196 154.775C61.8067 154.775 66.3358 154.134 66.3358 153.343V127.465C66.3358 127.726 65.8404 127.97 64.9791 128.181Z" stroke="#190000" stroke-width="0.5" stroke-linecap="round" stroke-linejoin="round"/>
<path d="M55.1636 86.096C62.0048 82.3731 64.9791 95.2707 57.1843 105.792C51.9715 112.828 54.6815 120.643 57.1843 123.185C59.6871 125.726 58.4683 128.471 54.2896 121.125C50.355 114.208 49.9189 107.258 54.2194 102.203C59.64 95.8311 49.9438 88.9364 55.1636 86.096Z" fill="#D6DCF2" stroke="#190000" stroke-width="0.5" stroke-linecap="round" stroke-linejoin="round"/>
<path d="M50.7541 102.203C49.8311 102.203 49.0829 101.448 49.0829 100.516C49.0829 99.5848 49.8311 98.8296 50.7541 98.8296C51.677 98.8296 52.4252 99.5848 52.4252 100.516C52.4252 101.448 51.677 102.203 50.7541 102.203Z" fill="#D6DCF2" stroke="#190000" stroke-width="0.5" stroke-linecap="round" stroke-linejoin="round"/>
<path d="M58.4515 135.385C59.3306 136.184 60.3911 136.758 61.5417 137.057" stroke="#6D3417" stroke-width="0.5" stroke-linecap="round" stroke-linejoin="round"/>
</svg>
